<svg xmlns="http://www.w3.org/2000/svg" width="125" height="125" viewBox="0 0 125 125" fill="none">
  <path d="M0.880814 53.9561V41.6346L13.0078 42.299C13.3697 39.7283 13.9715 37.1971 14.8054 34.7386L4.54934 27.9276L10.0167 18.5953L21.0993 23.2294C22.5976 21.3692 24.272 19.6581 26.0993 18.1197L19.4015 9.64184L28.472 4.61207L36.9116 11.6654C39.148 10.7692 41.4537 10.0562 43.8057 9.53334L40.9808 1.18041L51.5685 0.5L56.7195 8.38826C59.2382 8.47829 61.7486 8.72962 64.2352 9.14072L64.8193 2.10988L75.251 5.11408L77.1778 12.6525C79.5947 13.5715 81.961 14.6186 84.2665 15.7894L87.5128 10.7458L96.6507 16.553L95.7208 22.9344C97.7726 24.4781 99.7467 26.1114 101.624 27.8327L101.647 27.8545L101.652 27.8518L106.793 25.1081L113.895 32.8664L110.579 37.5423L110.184 38.1008C109.323 37.0861 108.464 36.0673 107.551 35.101C103.862 31.1175 99.724 27.5742 95.2198 24.5419C90.6855 21.5197 85.7868 19.0834 80.6406 17.2911C75.4783 15.4617 70.0677 14.4285 64.5945 14.2268C59.0778 13.998 53.5703 14.8616 48.3885 16.7678C43.1627 18.6902 38.4845 21.8576 34.7595 25.9956C31.0707 30.1795 28.4742 35.2104 27.2011 40.6405C25.9649 46.0333 25.7392 51.6085 26.5354 57.0836C28.0804 68.0133 33.127 78.2169 40.1231 86.5906C43.632 90.7888 47.624 94.5585 52.0164 97.8217C56.3986 101.097 61.1806 103.799 66.2468 105.865C71.3042 107.948 76.6283 109.314 82.0643 109.923C87.5032 110.565 93.0132 110.229 98.3336 108.93C103.647 107.596 108.576 105.044 112.732 101.476C114.786 99.6923 116.605 97.6559 118.146 95.415C118.172 95.3732 118.194 95.3304 118.22 95.2885L118.967 96.2563L124.407 103.287L118.893 110.534L111.873 104.978C110.227 106.463 108.455 107.802 106.576 108.978L109.743 117.873L100.639 122.191L95.1851 113.91C92.7442 114.559 90.2558 115.015 87.7431 115.273L87.4242 125.005H75.5545L73.2249 114.856C70.3386 114.407 67.4859 113.764 64.6865 112.93L59.9384 121.898L47.1934 116.701L49.3615 106.319C46.5691 104.715 43.8789 102.939 41.3063 101.002L32.1867 107.057L21.4059 97.0798L28.4593 88.8656C26.3663 86.3898 24.4364 83.7808 22.6817 81.0549L10.6832 82.5909L4.62189 69.9164L15.3713 65.825C14.4416 63.0069 13.7312 60.1212 13.2467 57.1936L0.880814 53.9561Z" fill="#A20100"/>
  <path d="M112.379 101.058C108.217 104.433 103.326 106.791 98.0935 107.948C92.883 109.114 87.5064 109.344 82.2152 108.628C76.9244 107.942 71.7557 106.519 66.8593 104.4C57.0471 100.148 48.3809 93.6345 41.5695 85.3918C34.8093 77.2097 30.0058 67.2935 28.5779 56.8008C27.7858 51.5782 27.9683 46.2541 29.116 41.0979C30.2856 35.9676 32.7067 31.2064 36.1635 27.2387C39.6693 23.3018 44.0827 20.2794 49.0211 18.4334C53.9888 16.5889 59.2599 15.6978 64.558 15.8068C69.8885 15.9118 75.172 16.8272 80.2269 18.5217C85.3091 20.1984 90.1615 22.5041 94.6711 25.3851C99.2086 28.256 103.399 31.6423 107.157 35.4763C108.108 36.427 109 37.4282 109.898 38.4251C109.908 38.4379 109.918 38.4511 109.928 38.4638L109.741 38.7292C109.731 38.7182 109.721 38.7077 109.711 38.6967L109.707 38.7022C106.925 35.6103 103.852 32.7928 100.53 30.2885C100.051 29.9282 99.5674 29.5745 99.078 29.2273L99.0788 29.2269L99.0514 29.207C93.2314 25.0298 86.692 21.9593 79.76 20.1491C55.1217 13.8754 33.7365 27.6419 34.8683 53.0995C36.0814 80.3807 61.9463 105.119 89.0583 106.374C96.5115 106.719 103.065 105.173 108.415 102.244C111.971 100.307 115.096 97.6681 117.601 94.4878L118.021 95.0309C117.975 95.1001 117.933 95.1731 117.888 95.2417C116.302 97.4039 114.452 99.358 112.379 101.058Z" fill="white"/>
  <path d="M85.9004 55.7316L97.8494 40.0377C97.8494 40.0377 85.6997 33.6424 69.33 47.0568L88.0247 61.0075L85.9004 55.7316ZM82.6684 54.8718L92.344 42.1841C92.5547 41.8993 92.8457 41.683 93.1801 41.5627L94.9956 40.879L83.8878 55.4686L84.0353 55.8313L82.6684 54.8718Z" fill="white"/>
  <path d="M53.2779 86.3993C51.4929 84.747 49.8117 82.9874 48.2439 81.1305L50.2775 79.9021C51.0944 79.4224 52.0693 79.2843 52.9879 79.518C53.9064 79.7516 54.6936 80.3381 55.1764 81.1484C55.6592 81.9587 55.7982 82.9267 55.5629 83.8397C55.3275 84.7526 54.7371 85.5359 53.9212 86.0174L53.2779 86.3993Z" fill="white"/>
  <path d="M110.441 78.1677C121.812 67.7381 114.45 52.6518 114.45 52.6518L103.997 67.3531L92.3009 66.3939L64.5422 45.6788C60.957 47.7917 64.749 58.3824 59.7231 64.7169C56.5867 68.6777 51.3586 73.131 45.4394 77.5004C46.1533 78.5015 46.8998 79.4893 47.6818 80.4424L49.8297 79.1502C50.8477 78.551 52.0631 78.3778 53.2085 78.6685C54.354 78.9593 55.3356 79.6903 55.9376 80.7007C56.5395 81.711 56.7124 82.918 56.4183 84.0561C56.1241 85.1943 55.387 86.1703 54.369 86.7694L53.9527 87.017C54.6412 87.6319 55.3487 88.2361 56.0591 88.8189L56.9012 88.3012C64.9136 83.5926 74.7796 82.7247 84.3287 81.8897C93.9116 81.0483 102.955 80.2544 108.044 75.5905C113.061 70.9894 114.443 62.0656 113.79 57.3801C115.037 62.0842 115.797 70.2684 108.941 76.5565C103.524 81.5209 94.2523 82.3374 84.4486 83.2004C75.0445 84.0214 65.3302 84.8742 57.5776 89.4351L57.1572 89.6974C57.779 90.1855 58.4049 90.6589 59.0498 91.1216C74.4833 82.3557 99.1466 88.5199 110.441 78.1677ZM64.4241 56.0002C64.4882 53.585 64.7164 51.1767 65.107 48.7916L70.1299 52.4637L69.5266 60.1455L64.4241 56.0002ZM64.6355 74.1567C64.4953 74.0671 64.378 73.9461 64.2931 73.8036C64.1875 73.6265 64.1342 73.4234 64.1391 73.2176C64.1441 73.0117 64.2071 72.8113 64.321 72.6391L71.0179 62.5831C71.1802 62.3413 71.4324 62.173 71.7192 62.1153C72.0059 62.0575 72.3039 62.115 72.5478 62.275C72.7918 62.4351 72.9618 62.6847 73.0207 62.9692C73.0796 63.2537 73.0226 63.55 72.8621 63.7931L66.1652 73.8491C66.0851 73.9691 65.9819 74.0723 65.8616 74.1528C65.7413 74.2332 65.6063 74.2894 65.4642 74.3179C65.3221 74.3465 65.1758 74.347 65.0336 74.3193C64.8914 74.2917 64.7562 74.2364 64.6355 74.1567ZM67.892 76.4152C67.753 76.3242 67.636 76.2036 67.5495 76.0621C67.444 75.885 67.3906 75.682 67.3955 75.4761C67.4005 75.2702 67.4635 75.0698 67.5774 74.8976L74.2743 64.8417C74.4368 64.6 74.689 64.432 74.9756 64.3744C75.2622 64.3168 75.56 64.3743 75.8038 64.5343C76.0476 64.6942 76.2176 64.9437 76.2766 65.228C76.3356 65.5124 76.2787 65.8085 76.1185 66.0516L69.4203 76.1009C69.3407 76.2213 69.238 76.3249 69.1181 76.4059C68.9982 76.4869 68.8634 76.5436 68.7214 76.5728C68.5795 76.602 68.4331 76.6031 68.2908 76.5761C68.1485 76.549 68.013 76.4944 67.892 76.4152ZM70.7411 79.0034C70.602 78.9123 70.485 78.7916 70.3986 78.6502C70.2924 78.4728 70.2393 78.269 70.2455 78.0625C70.2516 77.8561 70.3167 77.6556 70.4332 77.4845L77.1234 67.4298C77.2855 67.1872 77.5378 67.0183 77.8249 66.9602C78.112 66.9021 78.4105 66.9595 78.6547 67.1198C78.899 67.28 79.0691 67.5301 79.1278 67.8151C79.1865 68.1001 79.1288 68.3968 78.9676 68.6399L72.2694 78.689C72.1898 78.8094 72.0871 78.9131 71.9672 78.9941C71.8472 79.0751 71.7124 79.1318 71.5705 79.161C71.4285 79.1902 71.2822 79.1913 71.1399 79.1643C70.9976 79.1372 70.8621 79.0826 70.7411 79.0034ZM99.3385 78.4806C97.8682 78.7966 96.3798 79.0226 94.8818 79.1572L93.3826 68.095L97.3892 68.4012L99.3385 78.4806Z" fill="white"/>
</svg>