<svg xmlns="http://www.w3.org/2000/svg" width="150" height="150" viewBox="0 0 150 150" fill="none">
  <path d="M18.75 49.875L35.7617 64.0512C36.8849 64.9875 38.3007 65.5 39.7628 65.5H110.237C111.699 65.5 113.115 64.9875 114.238 64.0512L131.25 49.875M40.625 87.375H40.6875M109.375 87.375H109.438M51.0041 28H98.9963C103.482 28 107.624 30.4036 109.849 34.2982L127.956 65.9856C130.114 69.7631 131.25 74.0381 131.25 78.3894V115.5C131.25 118.952 128.452 121.75 125 121.75H118.75C115.298 121.75 112.5 118.952 112.5 115.5V109.25H37.5V115.5C37.5 118.952 34.7018 121.75 31.25 121.75H25C21.5482 121.75 18.75 118.952 18.75 115.5V78.3894C18.75 74.0381 19.8854 69.7631 22.0439 65.9856L40.151 34.2982C42.3765 30.4036 46.5183 28 51.0041 28ZM43.75 87.375C43.75 89.1006 42.3509 90.5 40.625 90.5C38.8991 90.5 37.5 89.1006 37.5 87.375C37.5 85.6494 38.8991 84.25 40.625 84.25C42.3509 84.25 43.75 85.6494 43.75 87.375ZM112.5 87.375C112.5 89.1006 111.101 90.5 109.375 90.5C107.649 90.5 106.25 89.1006 106.25 87.375C106.25 85.6494 107.649 84.25 109.375 84.25C111.101 84.25 112.5 85.6494 112.5 87.375Z" stroke="#22252A" stroke-width="5" stroke-linecap="round" stroke-linejoin="round"/>
</svg>