<svg xmlns="http://www.w3.org/2000/svg" width="253" height="92" viewBox="0 0 253 92" fill="none">
  <g clip-path="url(#clip0_322_1075)">
    <path d="M-4.57764e-05 39.7928V30.7388L8.87892 31.2269C9.14384 29.338 9.58445 27.478 10.195 25.6715L2.68591 20.6667L6.68891 13.8092L14.8032 17.2144C15.9002 15.8476 17.1262 14.5902 18.4641 13.4598L13.5601 7.23013L20.2013 3.5342L26.3804 8.71709C28.0179 8.05853 29.7059 7.53458 31.428 7.15041L29.3597 1.01259L37.1117 0.512611L40.8831 6.30899C42.7272 6.37514 44.5652 6.55983 46.3858 6.8619L46.8134 1.69557L54.4511 3.90309L55.8619 9.44241C57.6315 10.1177 59.364 10.8871 61.052 11.7474L63.4288 8.04137L70.1192 12.3085L69.4384 16.9977C70.9407 18.132 72.3861 19.3322 73.7602 20.597L73.7772 20.613L73.7808 20.611L77.5449 18.5949L82.7447 24.2958L80.3168 27.7317L80.0281 28.1421C79.3972 27.3964 78.7685 26.6478 78.1002 25.9378C75.3991 23.0107 72.3694 20.407 69.0716 18.1789C65.7517 15.9581 62.1651 14.1679 58.3972 12.8509C54.6176 11.5067 50.6561 10.7474 46.6489 10.5992C42.6097 10.4311 38.5773 11.0657 34.7834 12.4664C30.9572 13.879 27.532 16.2064 24.8047 19.247C22.1039 22.3214 20.2028 26.0182 19.2707 30.0083C18.3657 33.971 18.2004 38.0677 18.7833 42.0909C19.9145 50.1221 23.6095 57.6198 28.7317 63.7729C31.3009 66.8578 34.2237 69.6278 37.4396 72.0256C40.6481 74.4321 44.1493 76.4182 47.8586 77.936C51.5615 79.4669 55.4596 80.4705 59.4396 80.9175C63.4218 81.3897 67.456 81.1427 71.3514 80.1883C75.2415 79.2082 78.8507 77.3327 81.8932 74.7105C83.397 73.4002 84.7291 71.9038 85.8576 70.2572C85.8763 70.2264 85.8926 70.195 85.9112 70.1642L86.4586 70.8754L90.4414 76.0413L86.4046 81.3669L81.2642 77.2841C80.0592 78.3755 78.7616 79.3591 77.386 80.2238L79.7048 86.7597L73.0391 89.9321L69.0462 83.8475C67.259 84.3246 65.4371 84.6595 63.5975 84.8493L63.364 92H54.6734L52.9677 84.5428C50.8545 84.213 48.7658 83.7402 46.7162 83.1273L43.2398 89.7168L33.9083 85.8983L35.4958 78.2694C33.4513 77.0907 31.4816 75.786 29.5981 74.3629L22.921 78.8118L15.0277 71.4805L20.1919 65.4446C18.6595 63.6254 17.2465 61.7082 15.9618 59.7052L7.1769 60.8339L2.73904 51.5205L10.6094 48.5141C9.92866 46.4434 9.40858 44.3229 9.0538 42.1716L-4.57764e-05 39.7928Z" fill="white"/>
    <path d="M81.6348 74.4038C78.5875 76.8833 75.0066 78.6165 71.1758 79.4662C67.3608 80.3234 63.4243 80.4926 59.5502 79.9661C55.6765 79.4618 51.8922 78.4162 48.3072 76.8597C41.1231 73.7352 34.778 68.9488 29.7909 62.8919C24.8413 56.8797 21.3244 49.5932 20.279 41.883C19.699 38.0454 19.8326 34.1331 20.6729 30.3443C21.5292 26.5745 23.3019 23.076 25.8329 20.1604C28.3997 17.2676 31.631 15.0467 35.2467 13.6902C38.8839 12.3348 42.7432 11.68 46.6222 11.7601C50.5251 11.8373 54.3934 12.51 58.0945 13.7551C61.8155 14.9872 65.3682 16.6814 68.67 18.7984C71.9922 20.9079 75.06 23.3962 77.812 26.2135C78.5082 26.9121 79.1613 27.6478 79.8186 28.3803C79.826 28.3897 79.8333 28.3994 79.8407 28.4088L79.7036 28.6037C79.6964 28.5957 79.6888 28.588 79.6816 28.5799L79.6788 28.584C77.6416 26.312 75.3917 24.2417 72.9599 22.4015C72.6094 22.1367 72.2549 21.8768 71.8966 21.6217L71.8972 21.6214L71.8771 21.6068C67.6159 18.5373 62.828 16.2811 57.7527 14.9509C39.7134 10.341 24.0559 20.4567 24.8846 39.1633C25.7727 59.2097 44.7101 77.3876 64.5605 78.3097C70.0175 78.5633 74.8161 77.4272 78.7331 75.2754C81.3361 73.8517 83.624 71.9127 85.4584 69.5758L85.7656 69.9749C85.7325 70.0257 85.7018 70.0794 85.6683 70.1298C84.5078 71.7185 83.1526 73.1545 81.6348 74.4038Z" fill="white"/>
    <path d="M62.2481 41.0973L70.9967 29.5653C70.9967 29.5653 62.1011 24.8659 50.1158 34.723L63.8034 44.9741L62.2481 41.0973ZM59.8817 40.4656L66.9658 31.1425C67.1201 30.9332 67.3331 30.7743 67.578 30.6859L68.9072 30.1835L60.7745 40.9041L60.8825 41.1706L59.8817 40.4656Z" fill="white"/>
    <path d="M38.3634 63.6323C37.0566 62.4182 35.8257 61.1252 34.6778 59.7607L36.1667 58.8581C36.7648 58.5056 37.4786 58.4041 38.1511 58.5758C38.8237 58.7475 39.4 59.1784 39.7535 59.7739C40.107 60.3693 40.2088 61.0806 40.0365 61.7514C39.8641 62.4223 39.4318 62.9979 38.8345 63.3517L38.3634 63.6323Z" fill="white"/>
    <path d="M80.2161 57.5836C88.5414 49.9198 83.1516 38.8342 83.1516 38.8342L75.4981 49.6369L66.9346 48.9321L46.6107 33.7104C43.9857 35.263 46.7621 43.0451 43.0823 47.6998C40.7859 50.6103 36.9581 53.8825 32.6243 57.0933C33.1469 57.8289 33.6936 58.5548 34.2661 59.2551L35.8387 58.3056C36.584 57.8653 37.4739 57.738 38.3125 57.9516C39.1512 58.1653 39.8699 58.7024 40.3107 59.4448C40.7514 60.1873 40.878 61.0742 40.6626 61.9105C40.4472 62.7468 39.9075 63.464 39.1622 63.9042L38.8574 64.0861C39.3615 64.538 39.8795 64.982 40.3996 65.4102L41.0162 65.0298C46.8825 61.5699 54.1061 60.9321 61.0976 60.3186C68.1139 59.7003 74.7353 59.1169 78.4612 55.6898C82.1341 52.3089 83.1461 45.7516 82.6679 42.3086C83.5811 45.7653 84.1377 51.7791 79.1179 56.3997C75.1514 60.0476 68.3634 60.6475 61.1854 61.2817C54.3001 61.885 47.1876 62.5116 41.5114 65.863L41.2036 66.0557C41.6589 66.4144 42.1171 66.7622 42.5893 67.1022C53.8891 60.661 71.9467 65.1905 80.2161 57.5836ZM46.5242 41.2947C46.5711 39.52 46.7382 37.7503 47.0242 35.9977L50.7018 38.696L50.2601 44.3407L46.5242 41.2947ZM46.679 54.6363C46.5763 54.5704 46.4905 54.4816 46.4283 54.3768C46.351 54.2467 46.3119 54.0975 46.3155 53.9462C46.3192 53.7949 46.3653 53.6476 46.4487 53.5211L51.3519 46.1319C51.4708 45.9542 51.6554 45.8306 51.8654 45.7881C52.0753 45.7457 52.2935 45.7879 52.4721 45.9055C52.6507 46.0231 52.7752 46.2065 52.8183 46.4156C52.8614 46.6247 52.8197 46.8424 52.7022 47.021L47.799 54.4102C47.7403 54.4984 47.6648 54.5743 47.5767 54.6334C47.4886 54.6925 47.3897 54.7337 47.2857 54.7547C47.1817 54.7757 47.0746 54.7761 46.9704 54.7558C46.8663 54.7354 46.7673 54.6948 46.679 54.6363ZM49.0633 56.2959C48.9615 56.2289 48.8758 56.1403 48.8125 56.0364C48.7352 55.9063 48.6961 55.7571 48.6998 55.6058C48.7034 55.4545 48.7495 55.3072 48.833 55.1807L53.7362 47.7915C53.8551 47.6139 54.0397 47.4905 54.2496 47.4482C54.4595 47.4058 54.6775 47.448 54.856 47.5656C55.0345 47.6831 55.159 47.8664 55.2022 48.0754C55.2453 48.2843 55.2037 48.5019 55.0864 48.6806L50.1822 56.0649C50.124 56.1533 50.0488 56.2295 49.961 56.289C49.8732 56.3485 49.7745 56.3902 49.6705 56.4117C49.5666 56.4331 49.4595 56.4339 49.3553 56.4141C49.2511 56.3942 49.1518 56.354 49.0633 56.2959ZM51.1493 58.1977C51.0474 58.1307 50.9618 58.0421 50.8985 57.9381C50.8208 57.8078 50.7819 57.658 50.7864 57.5063C50.7909 57.3547 50.8386 57.2073 50.9239 57.0816L55.8222 49.6932C55.9408 49.515 56.1256 49.3909 56.3358 49.3482C56.546 49.3055 56.7645 49.3477 56.9433 49.4655C57.1222 49.5832 57.2468 49.767 57.2897 49.9764C57.3327 50.1858 57.2905 50.4038 57.1724 50.5824L52.2682 57.9667C52.21 58.0552 52.1348 58.1313 52.0469 58.1908C51.9591 58.2503 51.8605 58.292 51.7565 58.3135C51.6526 58.3349 51.5454 58.3357 51.4412 58.3159C51.337 58.296 51.2378 58.2558 51.1493 58.1977ZM72.0873 57.8135C71.0107 58.0457 69.921 58.2118 68.8242 58.3107L67.7266 50.182L70.66 50.4071L72.0873 57.8135Z" fill="white"/>
    <path d="M124.129 31.5143V41.1978L121.624 43.7121H113.092V47.7245H110V29H121.624L124.129 31.5143ZM113.092 41.0903H121.037V31.6212H113.092V41.0903Z" fill="white"/>
    <path d="M126.582 47.7245V35.4199L129.248 32.7449H137.086V35.5267H129.674V47.7246L126.582 47.7245Z" fill="white"/>
    <path d="M138.952 45.1034V35.3661L141.565 32.7449H149.669L152.282 35.3661V45.1034L149.669 47.7245H141.565L138.952 45.1034ZM142.045 45.1034H149.189V35.3661H142.045L142.045 45.1034Z" fill="white"/>
    <path d="M162.012 45.2102V31.5143L164.518 29H175.448V31.728H165.104V44.9958H173.502V39.2981H168.41V36.73H176.355V47.7245H164.518L162.012 45.2102Z" fill="white"/>
    <path d="M179.047 45.0496V39.1647L189.231 38.8973V35.4199H179.58V32.7449H189.657L192.324 35.4199V47.7246H181.713L179.047 45.0496ZM182.139 41.4115V45.1034H189.231V40.8765L182.139 41.4115Z" fill="white"/>
    <path d="M195.31 47.7245V35.4199L197.975 32.7449H205.813V35.5267H198.402V47.7246L195.31 47.7245Z" fill="white"/>
    <path d="M207.573 45.0496V39.1647L217.757 38.8973V35.4199H208.106V32.7449H218.183L220.85 35.4199V47.7246H210.239L207.573 45.0496ZM210.666 41.4115V45.1034H217.757V40.8765L210.666 41.4115Z" fill="white"/>
    <path d="M224.581 51.4694V48.7945H234.019V45.5846H226.287L223.675 42.9628V35.3661L226.501 32.7449H237.112V48.5808L234.232 51.4695L224.581 51.4694ZM226.767 35.4198V42.9627H234.019V35.4199L226.767 35.4198Z" fill="white"/>
    <path d="M239.938 45.1034V35.3661L242.55 32.7449H253V41.0903H243.03V45.0496H252.467V47.7245H242.55L239.938 45.1034ZM243.03 39.1109L250.202 38.8435V35.313H243.03V39.1109Z" fill="white"/>
    <path d="M123.945 64.8713C123.899 64.8731 123.853 64.8653 123.811 64.8484C123.768 64.8316 123.729 64.8061 123.697 64.7735C123.664 64.7409 123.639 64.702 123.622 64.6591C123.605 64.6162 123.597 64.5703 123.599 64.5242V58.2615C123.597 58.2155 123.605 58.1696 123.622 58.1267C123.639 58.0838 123.664 58.0448 123.697 58.0122C123.729 57.9797 123.768 57.9542 123.811 57.9373C123.853 57.9205 123.899 57.9127 123.945 57.9144H125.543C126.021 57.9087 126.496 57.9948 126.941 58.1679C127.353 58.3295 127.726 58.5752 128.038 58.8894C128.347 59.2042 128.59 59.5783 128.752 59.9894C129.09 60.8928 129.09 61.8881 128.752 62.7915C128.592 63.2044 128.348 63.5801 128.038 63.8957C127.726 64.2101 127.353 64.4558 126.941 64.6171C126.496 64.7909 126.021 64.8772 125.543 64.8714L123.945 64.8713ZM124.291 64.2477H125.543C126.049 64.2579 126.547 64.1302 126.986 63.8782C127.399 63.6357 127.738 63.2846 127.967 62.8627C128.2 62.4065 128.322 61.9011 128.322 61.3884C128.322 60.8756 128.2 60.3702 127.967 59.914C127.739 59.4928 127.399 59.1428 126.986 58.9027C126.546 58.6536 126.048 58.5275 125.543 58.5374H124.291V64.2477Z" fill="white"/>
    <path d="M130.683 64.8714C130.638 64.8758 130.592 64.8701 130.549 64.8547C130.506 64.8392 130.467 64.8144 130.435 64.782C130.403 64.7496 130.378 64.7104 130.363 64.6673C130.347 64.6242 130.342 64.5782 130.346 64.5326V60.3372C130.344 60.2911 130.35 60.245 130.366 60.2017C130.382 60.1583 130.406 60.1186 130.438 60.0851C130.47 60.0515 130.508 60.0248 130.55 60.0065C130.592 59.9882 130.638 59.9788 130.684 59.9788C130.73 59.9788 130.775 59.9882 130.817 60.0065C130.86 60.0248 130.898 60.0515 130.929 60.0851C130.961 60.1186 130.985 60.1583 131.001 60.2017C131.017 60.245 131.024 60.2911 131.021 60.3372V64.5326C131.025 64.5782 131.02 64.6242 131.004 64.6673C130.989 64.7104 130.964 64.7495 130.932 64.7819C130.9 64.8143 130.861 64.8391 130.818 64.8546C130.775 64.87 130.729 64.8758 130.683 64.8714ZM130.63 61.8696C130.642 61.5208 130.741 61.1808 130.919 60.8806C131.085 60.5978 131.32 60.3618 131.602 60.1947C131.886 60.0278 132.21 59.9416 132.539 59.9454C132.755 59.9343 132.971 59.9738 133.169 60.0606C133.235 60.0857 133.288 60.1344 133.32 60.1971C133.351 60.2598 133.357 60.332 133.338 60.3994C133.332 60.4359 133.318 60.4706 133.297 60.5013C133.276 60.532 133.25 60.5579 133.218 60.5775C133.155 60.6088 133.084 60.6212 133.014 60.6131C132.934 60.6075 132.844 60.6012 132.743 60.5956C132.445 60.5617 132.143 60.5966 131.86 60.6976C131.617 60.7855 131.404 60.9419 131.247 61.1481C131.094 61.3567 131.015 61.6105 131.021 61.8695L130.63 61.8696Z" fill="white"/>
    <path d="M134.892 59.0724C134.829 59.073 134.767 59.0607 134.709 59.0362C134.651 59.0117 134.598 58.9755 134.555 58.9299C134.509 58.8847 134.472 58.8306 134.448 58.7708C134.423 58.7109 134.411 58.6467 134.413 58.5821C134.41 58.5162 134.421 58.4504 134.446 58.3896C134.472 58.3287 134.51 58.2742 134.559 58.2301C134.653 58.1455 134.775 58.0994 134.901 58.1009C135.024 58.1005 135.143 58.1467 135.234 58.2301C135.282 58.2742 135.321 58.3287 135.346 58.3896C135.372 58.4504 135.383 58.5162 135.38 58.5821C135.381 58.6466 135.368 58.7105 135.344 58.7702C135.32 58.8299 135.284 58.8842 135.238 58.9298C135.193 58.9754 135.139 59.0115 135.079 59.036C135.02 59.0605 134.956 59.0728 134.892 59.0724ZM134.901 64.8713C134.855 64.875 134.808 64.8686 134.764 64.8524C134.721 64.8363 134.681 64.8109 134.648 64.7779C134.615 64.7449 134.59 64.7051 134.574 64.6613C134.557 64.6175 134.551 64.5708 134.555 64.5242V60.3463C134.551 60.2997 134.557 60.2529 134.573 60.209C134.589 60.1651 134.615 60.1253 134.648 60.0922C134.681 60.0591 134.72 60.0336 134.764 60.0175C134.808 60.0013 134.854 59.9948 134.901 59.9985C134.946 59.9966 134.991 60.004 135.032 60.02C135.074 60.0361 135.113 60.0607 135.145 60.0921C135.177 60.1259 135.202 60.1659 135.218 60.2096C135.234 60.2533 135.241 60.2998 135.238 60.3463V64.5242C135.241 64.5706 135.234 64.617 135.218 64.6606C135.202 64.7042 135.177 64.7441 135.145 64.7777C135.113 64.8092 135.074 64.8337 135.032 64.8498C134.991 64.8659 134.946 64.8732 134.901 64.8713Z" fill="white"/>
    <path d="M138.639 64.8713C138.568 64.8707 138.5 64.848 138.442 64.8065C138.385 64.7649 138.342 64.7066 138.319 64.6395L136.348 60.4441C136.331 60.4082 136.321 60.369 136.32 60.3291C136.318 60.2892 136.325 60.2494 136.339 60.2122C136.356 60.1723 136.38 60.136 136.41 60.1054C136.441 60.0749 136.477 60.0507 136.517 60.0341C136.553 60.014 136.593 60.002 136.635 59.999C136.676 59.9959 136.718 60.002 136.757 60.0167C136.834 60.0462 136.897 60.1031 136.934 60.1766L138.825 64.2833H138.461L140.326 60.1766C140.342 60.1371 140.366 60.1018 140.398 60.0732C140.429 60.0447 140.467 60.0237 140.508 60.0118C140.591 59.985 140.681 59.9897 140.761 60.0251C140.839 60.0616 140.899 60.1273 140.93 60.208C140.944 60.2443 140.951 60.2834 140.949 60.3225C140.948 60.3616 140.938 60.4 140.921 60.435L138.976 64.6395C138.951 64.7086 138.905 64.768 138.844 64.8096C138.784 64.8511 138.712 64.8727 138.639 64.8713Z" fill="white"/>
    <path d="M143.912 64.9161C143.467 64.9247 143.028 64.8156 142.638 64.5997C142.273 64.3935 141.972 64.0899 141.768 63.7225C141.553 63.3297 141.444 62.8874 141.453 62.4395C141.443 61.9922 141.546 61.5497 141.75 61.1523C141.943 60.7821 142.235 60.4735 142.594 60.2617C142.952 60.0498 143.363 59.9432 143.779 59.9538C144.192 59.9442 144.599 60.0506 144.955 60.2611C145.289 60.4657 145.558 60.7606 145.732 61.1118C145.921 61.4967 146.015 61.9212 146.007 62.3501C146.009 62.3922 146.002 62.4342 145.987 62.4734C145.972 62.5127 145.948 62.5482 145.918 62.5778C145.887 62.6064 145.851 62.6286 145.811 62.6431C145.772 62.6576 145.73 62.6641 145.688 62.6623H141.915V62.0924H145.759L145.377 62.3682C145.388 62.0489 145.324 61.7315 145.191 61.4414C145.07 61.1793 144.877 60.957 144.635 60.8003C144.379 60.641 144.081 60.5604 143.779 60.5684C143.466 60.5616 143.158 60.6453 142.891 60.8094C142.636 60.9702 142.431 61.2002 142.301 61.4729C142.157 61.7744 142.086 62.1054 142.092 62.4395C142.085 62.7752 142.166 63.1068 142.327 63.4012C142.479 63.6752 142.701 63.903 142.971 64.0605C143.257 64.2248 143.582 64.3081 143.912 64.3014C144.131 64.3005 144.349 64.2627 144.556 64.1897C144.745 64.1302 144.921 64.0349 145.075 63.9089C145.138 63.8569 145.216 63.8271 145.297 63.8244C145.374 63.8197 145.45 63.8436 145.51 63.8915C145.545 63.9199 145.573 63.9551 145.594 63.995C145.614 64.0349 145.627 64.0786 145.63 64.1233C145.631 64.1646 145.623 64.2055 145.605 64.2427C145.587 64.2799 145.561 64.3123 145.528 64.3371C145.306 64.5185 145.053 64.6587 144.782 64.7512C144.504 64.8566 144.209 64.9124 143.912 64.9161Z" fill="white"/>
    <path d="M147.507 64.8714C147.461 64.8738 147.415 64.8667 147.371 64.8506C147.328 64.8345 147.288 64.8097 147.254 64.7778C147.223 64.7455 147.199 64.707 147.183 64.6649C147.166 64.6227 147.159 64.5777 147.161 64.5326V60.3463C147.157 60.2997 147.164 60.2529 147.18 60.209C147.196 60.1651 147.221 60.1253 147.254 60.0922C147.287 60.0592 147.327 60.0337 147.371 60.0175C147.414 60.0013 147.461 59.9948 147.507 59.9985C147.552 59.9966 147.597 60.004 147.639 60.0201C147.681 60.0362 147.719 60.0607 147.751 60.0921C147.783 60.1259 147.808 60.1659 147.824 60.2096C147.84 60.2533 147.847 60.2998 147.845 60.3463V64.5326C147.847 64.5777 147.84 64.6229 147.824 64.6651C147.808 64.7073 147.783 64.7457 147.752 64.7776C147.72 64.8096 147.682 64.8345 147.639 64.8506C147.597 64.8668 147.552 64.8738 147.507 64.8714ZM151.325 64.8714C151.279 64.8729 151.233 64.865 151.191 64.8482C151.148 64.8314 151.109 64.806 151.077 64.7736C151.045 64.7423 151.02 64.7047 151.003 64.6633C150.986 64.6218 150.978 64.5774 150.979 64.5326V62.2167C150.991 61.9005 150.919 61.5868 150.77 61.308C150.638 61.0771 150.44 60.891 150.202 60.7737C149.952 60.658 149.68 60.5972 149.404 60.5957C149.128 60.5941 148.855 60.6517 148.604 60.7647C148.382 60.8679 148.191 61.0275 148.049 61.2277C147.913 61.4235 147.841 61.6573 147.845 61.8961H147.356C147.363 61.5404 147.467 61.1935 147.658 60.8939C147.846 60.601 148.106 60.3617 148.413 60.199C148.736 60.0277 149.096 59.9405 149.461 59.9454C149.852 59.9386 150.24 60.0288 150.588 60.208C150.919 60.3827 151.192 60.6504 151.374 60.9784C151.576 61.3587 151.676 61.7857 151.662 62.2167V64.5326C151.663 64.5772 151.655 64.6216 151.638 64.6629C151.621 64.7043 151.596 64.7419 151.565 64.7734C151.533 64.805 151.496 64.83 151.455 64.8468C151.414 64.8636 151.37 64.872 151.325 64.8714Z" fill="white"/>
    <path d="M155.462 60.7737C155.422 60.775 155.381 60.7682 155.343 60.7537C155.305 60.7392 155.27 60.7173 155.24 60.6892C155.212 60.6626 155.189 60.6301 155.174 60.594C155.158 60.5579 155.151 60.5189 155.152 60.4797C155.15 60.439 155.157 60.3985 155.173 60.3608C155.188 60.3232 155.211 60.2892 155.24 60.2611C155.3 60.2047 155.38 60.1743 155.462 60.1766H157.726C157.808 60.1743 157.888 60.2047 157.948 60.2611C157.978 60.2892 158.001 60.3232 158.016 60.3609C158.031 60.3986 158.038 60.439 158.037 60.4797C158.038 60.5189 158.03 60.5578 158.015 60.5939C158 60.63 157.977 60.6625 157.948 60.6892C157.919 60.7173 157.884 60.7392 157.846 60.7537C157.808 60.7682 157.767 60.775 157.726 60.7737H155.462ZM157.673 64.8713C157.383 64.8773 157.096 64.8026 156.846 64.6556C156.595 64.5085 156.39 64.2949 156.252 64.0382C156.107 63.7659 156.033 63.4607 156.039 63.1519V58.7958C156.038 58.7502 156.045 58.7046 156.061 58.6619C156.077 58.6191 156.101 58.5799 156.133 58.5465C156.164 58.514 156.202 58.4884 156.244 58.4716C156.287 58.4547 156.332 58.447 156.377 58.4487C156.423 58.447 156.469 58.4548 156.511 58.4716C156.554 58.4884 156.593 58.5139 156.625 58.5465C156.658 58.5791 156.683 58.6181 156.7 58.661C156.717 58.7039 156.725 58.7498 156.723 58.7958V63.1519C156.712 63.4251 156.808 63.6919 156.989 63.8957C157.076 63.9906 157.182 64.0657 157.3 64.1158C157.418 64.1658 157.545 64.1896 157.673 64.1855H157.913C157.956 64.1841 157.999 64.1921 158.039 64.209C158.079 64.2258 158.114 64.2512 158.144 64.2833C158.204 64.3519 158.236 64.4412 158.232 64.5326C158.234 64.5789 158.225 64.6249 158.207 64.6673C158.188 64.7097 158.161 64.7475 158.126 64.7778C158.052 64.8411 157.957 64.8745 157.86 64.8713H157.673Z" fill="white"/>
    <path d="M161.553 64.916C161.109 64.9236 160.671 64.813 160.284 64.5955C159.916 64.3869 159.612 64.082 159.404 63.7134C159.195 63.3201 159.085 62.881 159.085 62.4349C159.085 61.9889 159.195 61.5497 159.404 61.1565C159.612 60.788 159.916 60.4833 160.284 60.2751C160.673 60.0642 161.108 59.9538 161.551 59.9538C161.993 59.9538 162.429 60.0642 162.818 60.2751C163.184 60.4845 163.486 60.789 163.693 61.1565C163.91 61.5487 164.024 61.9906 164.021 62.4395C164.029 62.8855 163.917 63.3254 163.697 63.7134C163.488 64.0806 163.184 64.3851 162.818 64.5955C162.432 64.8133 161.996 64.9239 161.553 64.916ZM161.553 64.2924C161.877 64.2973 162.196 64.2143 162.477 64.0521C162.745 63.8948 162.966 63.6668 163.116 63.3928C163.273 63.1002 163.352 62.7719 163.347 62.4395C163.352 62.1058 163.272 61.7762 163.116 61.4819C162.968 61.2058 162.746 60.9762 162.477 60.8184C162.194 60.6604 161.876 60.5775 161.553 60.5775C161.23 60.5775 160.912 60.6604 160.63 60.8184C160.359 60.9768 160.137 61.2062 159.986 61.4819C159.826 61.7753 159.745 62.1052 159.751 62.4395C159.745 62.7724 159.826 63.1011 159.986 63.3928C160.138 63.6665 160.36 63.8942 160.63 64.0521C160.91 64.2144 161.229 64.2974 161.553 64.2924Z" fill="white"/>
    <path d="M167.839 64.8713C167.747 64.8705 167.66 64.8337 167.595 64.7688C167.53 64.7039 167.493 64.6161 167.492 64.5242V58.2615C167.491 58.2155 167.499 58.1696 167.515 58.1267C167.532 58.0838 167.558 58.0448 167.59 58.0122C167.623 57.9797 167.661 57.9542 167.704 57.9373C167.747 57.9205 167.793 57.9127 167.839 57.9144H172.003C172.048 57.9127 172.093 57.9201 172.136 57.936C172.179 57.9519 172.218 57.9762 172.251 58.0073C172.284 58.039 172.309 58.0772 172.326 58.1195C172.343 58.1617 172.351 58.207 172.349 58.2525C172.349 58.2958 172.341 58.3387 172.324 58.3785C172.307 58.4184 172.282 58.4544 172.251 58.4843C172.218 58.5168 172.18 58.5423 172.137 58.5591C172.094 58.5759 172.048 58.5838 172.003 58.5821H168.185V61.0405H170.964C171.01 61.039 171.056 61.0469 171.098 61.0639C171.141 61.0808 171.18 61.1064 171.212 61.139C171.275 61.2034 171.31 61.2897 171.31 61.3796C171.31 61.4695 171.275 61.5558 171.212 61.6202C171.18 61.6526 171.141 61.678 171.098 61.6948C171.056 61.7116 171.01 61.7195 170.964 61.718H168.185V64.5242C168.186 64.5695 168.177 64.6144 168.161 64.6563C168.144 64.6983 168.119 64.7365 168.087 64.7687C168.055 64.8024 168.017 64.829 167.974 64.8467C167.931 64.8644 167.885 64.8728 167.839 64.8713Z" fill="white"/>
    <path d="M173.982 59.0724C173.919 59.073 173.856 59.0607 173.798 59.0362C173.74 59.0117 173.688 58.9755 173.644 58.9299C173.598 58.8847 173.562 58.8306 173.538 58.7708C173.513 58.7109 173.501 58.6467 173.502 58.5821C173.499 58.5162 173.511 58.4504 173.536 58.3896C173.562 58.3287 173.6 58.2742 173.649 58.2301C173.743 58.1455 173.865 58.0994 173.991 58.1009C174.114 58.1005 174.233 58.1467 174.323 58.2301C174.372 58.2742 174.411 58.3287 174.436 58.3896C174.461 58.4504 174.473 58.5162 174.47 58.5821C174.47 58.6466 174.458 58.7105 174.434 58.7702C174.409 58.8299 174.374 58.8842 174.328 58.9298C174.283 58.9754 174.229 59.0115 174.169 59.036C174.11 59.0605 174.046 59.0728 173.982 59.0724ZM173.991 64.8713C173.944 64.875 173.898 64.8686 173.854 64.8524C173.81 64.8363 173.771 64.8109 173.738 64.7779C173.705 64.7449 173.68 64.7051 173.663 64.6613C173.647 64.6175 173.641 64.5708 173.644 64.5242V60.3463C173.641 60.2997 173.647 60.2529 173.663 60.209C173.679 60.1651 173.705 60.1253 173.738 60.0922C173.771 60.0591 173.81 60.0336 173.854 60.0175C173.898 60.0013 173.944 59.9948 173.991 59.9985C174.036 59.9966 174.08 60.004 174.122 60.02C174.164 60.0361 174.203 60.0607 174.235 60.0921C174.267 60.1259 174.291 60.1659 174.307 60.2096C174.323 60.2533 174.33 60.2998 174.328 60.3463V64.5242C174.33 64.5706 174.323 64.617 174.307 64.6606C174.291 64.7042 174.267 64.7441 174.235 64.7777C174.203 64.8092 174.164 64.8337 174.122 64.8498C174.08 64.8659 174.036 64.8732 173.991 64.8713Z" fill="white"/>
    <path d="M175.944 64.8713C175.902 64.8734 175.86 64.8666 175.821 64.8512C175.782 64.8357 175.747 64.8121 175.718 64.7819C175.662 64.7247 175.63 64.6482 175.629 64.5682C175.628 64.4791 175.662 64.3931 175.722 64.328L177.356 62.2788L177.738 62.7866L176.184 64.7645C176.155 64.8006 176.119 64.8291 176.077 64.8478C176.035 64.8664 175.99 64.8745 175.944 64.8713ZM179.46 64.8713C179.4 64.8738 179.341 64.8615 179.287 64.8357C179.233 64.8039 179.186 64.7613 179.149 64.7107L177.613 62.751L177.347 62.5198L175.802 60.5509C175.744 60.4894 175.711 60.4082 175.709 60.3233C175.707 60.2384 175.737 60.1559 175.793 60.0921C175.822 60.0602 175.858 60.0352 175.898 60.019C175.938 60.0028 175.981 59.9958 176.024 59.9985C176.072 59.9977 176.119 60.0068 176.164 60.0252C176.208 60.0436 176.248 60.0708 176.281 60.1054L177.773 62.0204L178.013 62.2167L179.664 64.3371C179.698 64.3722 179.724 64.4141 179.741 64.46C179.758 64.506 179.765 64.555 179.762 64.6038C179.758 64.6424 179.746 64.6797 179.726 64.7134C179.707 64.7472 179.682 64.7767 179.651 64.8001C179.597 64.8446 179.53 64.8696 179.46 64.8713ZM178.022 62.5554L177.587 62.1099L179.122 60.1592C179.154 60.1095 179.197 60.0686 179.248 60.0405C179.299 60.0124 179.357 59.9979 179.415 59.9985C179.458 59.9958 179.502 60.0028 179.541 60.019C179.581 60.0352 179.617 60.0602 179.646 60.0921C179.699 60.1538 179.726 60.2336 179.722 60.3149C179.717 60.4045 179.685 60.4903 179.629 60.5601L178.022 62.5554Z" fill="white"/>
    <path d="M180.853 66.3143C180.828 66.3159 180.803 66.3124 180.779 66.304C180.755 66.2956 180.734 66.2825 180.715 66.2654C180.699 66.2483 180.686 66.2281 180.678 66.2058C180.669 66.1836 180.666 66.1599 180.667 66.1362C180.666 66.048 180.694 65.9621 180.746 65.891C180.8 65.817 180.854 65.7381 180.911 65.655C180.962 65.5695 180.991 65.4725 180.994 65.3729C180.998 65.2733 180.977 65.1743 180.933 65.0851C180.892 65.0153 180.843 64.951 180.786 64.8937C180.73 64.8374 180.681 64.7746 180.64 64.7065C180.596 64.6294 180.575 64.5417 180.578 64.453C180.575 64.3864 180.586 64.32 180.612 64.2584C180.637 64.1968 180.675 64.1414 180.724 64.0961C180.782 64.0476 180.848 64.011 180.92 63.9885C180.992 63.9661 181.067 63.9582 181.142 63.9652C181.217 63.9723 181.289 63.9943 181.355 64.0298C181.422 64.0654 181.48 64.1138 181.528 64.1723C181.649 64.3413 181.709 64.5473 181.696 64.7554C181.695 64.933 181.671 65.1097 181.625 65.2813C181.58 65.459 181.515 65.6308 181.43 65.7933C181.359 65.9337 181.267 66.0616 181.155 66.1718C181.076 66.2567 180.968 66.3077 180.853 66.3143Z" fill="white"/>
    <path d="M186.02 64.8713C185.919 64.8751 185.82 64.8418 185.741 64.7777C185.704 64.7469 185.675 64.708 185.655 64.6641C185.636 64.6201 185.627 64.5722 185.629 64.5242V58.2615C185.628 58.2155 185.636 58.1695 185.652 58.1267C185.669 58.0838 185.695 58.0449 185.727 58.0123C185.76 57.9797 185.799 57.9542 185.841 57.9374C185.884 57.9206 185.93 57.9127 185.976 57.9144H188.133C188.468 57.9094 188.799 57.9873 189.096 58.1414C189.374 58.2842 189.61 58.4975 189.78 58.7602C189.952 59.0314 190.04 59.3475 190.033 59.6688C190.038 59.9739 189.948 60.2729 189.776 60.5244C189.606 60.7718 189.373 60.9687 189.101 61.0943C189.476 61.1878 189.812 61.3984 190.06 61.6956C190.31 62.0127 190.439 62.4094 190.424 62.8138C190.431 63.1885 190.336 63.5581 190.149 63.8824C189.967 64.1896 189.704 64.4408 189.389 64.6087C189.049 64.7883 188.669 64.8786 188.284 64.8713H186.02ZM186.322 60.8184H188.133C188.453 60.8306 188.767 60.7225 189.012 60.5153C189.129 60.409 189.221 60.2778 189.281 60.1314C189.34 59.9849 189.367 59.8269 189.358 59.6688C189.368 59.516 189.342 59.3629 189.282 59.2221C189.222 59.0813 189.129 58.9568 189.012 58.8587C188.76 58.6672 188.449 58.5695 188.133 58.5821H186.322V60.8184ZM186.322 64.203H188.284C188.545 64.2084 188.804 64.1504 189.039 64.0339C189.253 63.9263 189.431 63.7593 189.554 63.5527C189.682 63.3284 189.747 63.0727 189.74 62.8138C189.746 62.5674 189.681 62.3245 189.554 62.114C189.428 61.9145 189.25 61.7541 189.039 61.6509C188.803 61.5375 188.545 61.481 188.284 61.4861H186.322V64.203Z" fill="white"/>
    <path d="M193.825 64.9251C193.433 64.9318 193.046 64.8414 192.697 64.6618C192.366 64.4876 192.092 64.2198 191.911 63.8915C191.708 63.5112 191.609 63.0842 191.622 62.6532V60.3372C191.622 60.2926 191.63 60.2483 191.647 60.207C191.664 60.1657 191.689 60.1282 191.72 60.0966C191.752 60.0651 191.789 60.0401 191.83 60.0233C191.871 60.0064 191.915 59.998 191.96 59.9985C192.006 59.9969 192.051 60.0048 192.094 60.0216C192.137 60.0384 192.176 60.0638 192.208 60.0963C192.24 60.1276 192.265 60.1652 192.282 60.2066C192.299 60.2481 192.307 60.2925 192.306 60.3372V62.6532C192.293 62.9693 192.366 63.2831 192.515 63.5618C192.647 63.7928 192.845 63.9789 193.083 64.0961C193.334 64.2119 193.606 64.2726 193.881 64.2742C194.157 64.2757 194.429 64.2181 194.681 64.1052C194.903 64.0021 195.095 63.8425 195.236 63.6421C195.372 63.4461 195.443 63.2124 195.44 62.9737H195.928C195.917 63.325 195.814 63.6672 195.629 63.9653C195.443 64.2635 195.182 64.5069 194.872 64.6709C194.55 64.8422 194.19 64.9296 193.825 64.9251ZM195.778 64.8713C195.733 64.8732 195.688 64.8659 195.646 64.8498C195.604 64.8337 195.566 64.8092 195.533 64.7778C195.502 64.744 195.477 64.7042 195.461 64.6606C195.445 64.617 195.438 64.5706 195.44 64.5242V60.3372C195.438 60.2921 195.445 60.2469 195.461 60.2047C195.477 60.1624 195.502 60.1241 195.533 60.0921C195.565 60.0601 195.604 60.0352 195.646 60.0191C195.688 60.003 195.733 59.996 195.778 59.9985C195.87 59.9954 195.959 60.0291 196.026 60.0921C196.059 60.1238 196.084 60.162 196.101 60.2042C196.118 60.2465 196.126 60.2918 196.124 60.3372V64.5242C196.126 64.571 196.119 64.6177 196.102 64.6614C196.085 64.705 196.059 64.7447 196.026 64.7778C195.959 64.8407 195.87 64.8744 195.778 64.8713Z" fill="white"/>
    <path d="M198.201 59.0724C198.138 59.073 198.075 59.0607 198.017 59.0362C197.959 59.0117 197.907 58.9755 197.863 58.9299C197.817 58.8848 197.781 58.8306 197.756 58.7708C197.732 58.711 197.72 58.6467 197.721 58.5821C197.718 58.5163 197.73 58.4505 197.755 58.3897C197.78 58.3288 197.819 58.2743 197.867 58.2301C197.961 58.1456 198.083 58.0995 198.209 58.1009C198.332 58.1006 198.451 58.1467 198.543 58.2301C198.591 58.2743 198.63 58.3288 198.655 58.3897C198.68 58.4505 198.692 58.5163 198.689 58.5821C198.689 58.6466 198.677 58.7105 198.653 58.7702C198.628 58.8298 198.592 58.8841 198.547 58.9297C198.502 58.9753 198.448 59.0114 198.388 59.0359C198.329 59.0604 198.265 59.0728 198.201 59.0724ZM198.209 64.8713C198.163 64.875 198.116 64.8685 198.073 64.8524C198.029 64.8362 197.989 64.8108 197.956 64.7778C197.924 64.7448 197.898 64.705 197.882 64.6613C197.866 64.6175 197.86 64.5707 197.863 64.5242V60.3463C197.859 60.2997 197.866 60.2529 197.882 60.2091C197.898 60.1652 197.923 60.1254 197.956 60.0924C197.989 60.0593 198.029 60.0338 198.072 60.0176C198.116 60.0014 198.163 59.9949 198.209 59.9985C198.254 59.9966 198.299 60.0039 198.341 60.02C198.383 60.0361 198.421 60.0606 198.453 60.0921C198.485 60.1259 198.51 60.1659 198.526 60.2096C198.542 60.2533 198.549 60.2998 198.547 60.3463V64.5242C198.549 64.5706 198.542 64.617 198.526 64.6606C198.51 64.7042 198.485 64.7441 198.453 64.7778C198.421 64.8092 198.383 64.8337 198.341 64.8498C198.299 64.8659 198.254 64.8732 198.209 64.8713Z" fill="white"/>
    <path d="M201.335 64.8713C201.108 64.8746 200.886 64.8059 200.7 64.6751C200.508 64.5376 200.357 64.3496 200.265 64.1317C200.157 63.8786 200.104 63.6052 200.11 63.3299V58.2525C200.108 58.2071 200.116 58.1618 200.132 58.1195C200.148 58.0771 200.173 58.0384 200.204 58.0058C200.236 57.9731 200.274 57.9471 200.315 57.9294C200.357 57.9117 200.402 57.9025 200.447 57.9025C200.492 57.9025 200.537 57.9117 200.579 57.9294C200.62 57.9471 200.658 57.9731 200.69 58.0058C200.721 58.0384 200.746 58.0771 200.762 58.1195C200.778 58.1618 200.786 58.2071 200.784 58.2525V63.3299C200.775 63.5485 200.829 63.7651 200.939 63.9536C200.978 64.0253 201.035 64.0854 201.105 64.1277C201.174 64.17 201.254 64.1931 201.335 64.1946H201.557C201.597 64.193 201.637 64.2006 201.674 64.2168C201.711 64.233 201.744 64.2574 201.77 64.2882C201.825 64.3572 201.854 64.4441 201.85 64.5326C201.851 64.5793 201.842 64.6258 201.823 64.6683C201.804 64.7108 201.775 64.7483 201.739 64.7778C201.657 64.8427 201.555 64.876 201.45 64.8713H201.335Z" fill="white"/>
    <path d="M202.48 60.7737C202.44 60.7751 202.399 60.7683 202.361 60.7538C202.323 60.7393 202.288 60.7173 202.258 60.6892C202.229 60.6626 202.207 60.6302 202.191 60.594C202.176 60.5579 202.168 60.5189 202.169 60.4797C202.168 60.439 202.175 60.3985 202.19 60.3608C202.206 60.3232 202.229 60.2892 202.258 60.2611C202.318 60.2046 202.398 60.1742 202.48 60.1766H204.744C204.826 60.1742 204.906 60.2046 204.966 60.2611C204.995 60.2892 205.018 60.3232 205.033 60.3609C205.049 60.3986 205.056 60.4391 205.054 60.4797C205.055 60.5189 205.048 60.5579 205.032 60.594C205.017 60.6301 204.995 60.6626 204.966 60.6892C204.936 60.7173 204.901 60.7393 204.863 60.7538C204.825 60.7683 204.785 60.7751 204.744 60.7737H202.48ZM204.69 64.8714C204.4 64.8773 204.114 64.8026 203.863 64.6555C203.613 64.5085 203.407 64.2948 203.27 64.0382C203.125 63.7659 203.051 63.4607 203.057 63.1519V58.7959C203.054 58.7037 203.087 58.614 203.15 58.5465C203.182 58.514 203.22 58.4886 203.262 58.4717C203.304 58.4549 203.349 58.4471 203.394 58.4487C203.44 58.4471 203.486 58.4549 203.529 58.4717C203.571 58.4886 203.61 58.5141 203.643 58.5466C203.675 58.5792 203.701 58.6181 203.718 58.661C203.735 58.7039 203.742 58.7498 203.741 58.7959V63.1519C203.73 63.425 203.825 63.6918 204.007 63.8957C204.093 63.9906 204.199 64.0657 204.317 64.1157C204.435 64.1657 204.562 64.1895 204.69 64.1855H204.93C204.974 64.1841 205.016 64.192 205.056 64.2089C205.096 64.2258 205.132 64.2512 205.161 64.2833C205.221 64.3519 205.253 64.4411 205.25 64.5326C205.251 64.5789 205.243 64.6249 205.224 64.6673C205.206 64.7098 205.178 64.7475 205.143 64.7778C205.069 64.8411 204.974 64.8745 204.877 64.8714H204.69Z" fill="white"/>
    <path d="M208.65 60.7737C208.609 60.7751 208.569 60.7683 208.531 60.7538C208.493 60.7393 208.458 60.7173 208.428 60.6892C208.399 60.6626 208.377 60.6302 208.361 60.594C208.346 60.5579 208.338 60.5189 208.339 60.4797C208.338 60.439 208.345 60.3985 208.36 60.3608C208.376 60.3232 208.399 60.2892 208.428 60.2611C208.488 60.2046 208.568 60.1742 208.65 60.1766H210.914C210.996 60.1742 211.076 60.2046 211.136 60.2611C211.165 60.2892 211.188 60.3232 211.203 60.3609C211.219 60.3986 211.226 60.4391 211.224 60.4797C211.225 60.5189 211.218 60.5579 211.202 60.594C211.187 60.6301 211.164 60.6626 211.136 60.6892C211.106 60.7173 211.071 60.7393 211.033 60.7538C210.995 60.7683 210.955 60.7751 210.914 60.7737H208.65ZM210.86 64.8714C210.57 64.8773 210.284 64.8026 210.033 64.6555C209.783 64.5085 209.577 64.2948 209.44 64.0382C209.295 63.7659 209.221 63.4607 209.227 63.1519V58.7959C209.224 58.7037 209.257 58.614 209.32 58.5465C209.351 58.514 209.39 58.4886 209.432 58.4717C209.474 58.4549 209.519 58.4471 209.564 58.4487C209.61 58.4471 209.656 58.4549 209.699 58.4717C209.741 58.4886 209.78 58.5141 209.813 58.5466C209.845 58.5792 209.871 58.6181 209.888 58.661C209.904 58.7039 209.912 58.7498 209.911 58.7959V63.1519C209.9 63.425 209.995 63.6918 210.177 63.8957C210.263 63.9906 210.369 64.0657 210.487 64.1157C210.605 64.1657 210.732 64.1895 210.86 64.1855H211.1C211.143 64.1841 211.186 64.192 211.226 64.2089C211.266 64.2258 211.302 64.2512 211.331 64.2833C211.391 64.3519 211.423 64.4411 211.42 64.5326C211.421 64.5789 211.413 64.6249 211.394 64.6673C211.376 64.7098 211.348 64.7475 211.313 64.7778C211.239 64.8411 211.144 64.8745 211.047 64.8714H210.86Z" fill="white"/>
    <path d="M214.741 64.916C214.297 64.9236 213.859 64.813 213.471 64.5955C213.104 64.387 212.8 64.0821 212.592 63.7134C212.382 63.3201 212.272 62.881 212.272 62.4349C212.272 61.9889 212.382 61.5497 212.592 61.1565C212.8 60.788 213.104 60.4832 213.471 60.2751C213.858 60.057 214.297 59.9461 214.741 59.9538C215.183 59.9458 215.62 60.0567 216.005 60.2751C216.371 60.4842 216.673 60.7888 216.88 61.1565C217.098 61.5487 217.211 61.9906 217.209 62.4395C217.216 62.8855 217.104 63.3254 216.885 63.7134C216.675 64.0809 216.372 64.3854 216.005 64.5955C215.62 64.8133 215.183 64.924 214.741 64.916ZM214.741 64.2924C215.064 64.2974 215.383 64.2143 215.664 64.0521C215.933 63.8946 216.154 63.6667 216.303 63.3928C216.46 63.1001 216.54 62.7718 216.534 62.4395C216.539 62.1058 216.46 61.7763 216.303 61.4819C216.155 61.2059 215.934 60.9764 215.664 60.8184C215.381 60.6604 215.064 60.5775 214.74 60.5775C214.417 60.5775 214.099 60.6604 213.817 60.8184C213.546 60.9768 213.324 61.2062 213.174 61.4819C213.014 61.7752 212.933 62.1052 212.939 62.4395C212.933 62.7724 213.014 63.1011 213.174 63.3928C213.325 63.6664 213.548 63.8942 213.817 64.0521C214.098 64.2143 214.417 64.2974 214.741 64.2924Z" fill="white"/>
    <path d="M221.576 64.8713C221.531 64.872 221.486 64.8637 221.444 64.8469C221.402 64.8301 221.364 64.8052 221.332 64.7736C221.298 64.7415 221.272 64.7028 221.254 64.6598C221.237 64.6169 221.228 64.5707 221.23 64.5242V58.2615C221.23 58.1694 221.266 58.081 221.331 58.0158C221.396 57.9507 221.484 57.9141 221.576 57.9141C221.668 57.9141 221.756 57.9507 221.821 58.0158C221.886 58.081 221.922 58.1694 221.922 58.2615V64.212H225.393C225.484 64.2105 225.571 64.244 225.638 64.3056C225.67 64.3358 225.696 64.3724 225.713 64.413C225.731 64.4536 225.74 64.4974 225.74 64.5417C225.74 64.586 225.731 64.6298 225.713 64.6704C225.696 64.711 225.67 64.7476 225.638 64.7778C225.571 64.8393 225.484 64.8729 225.393 64.8713H221.576Z" fill="white"/>
    <path d="M228.901 64.916C228.477 64.9229 228.059 64.8137 227.692 64.6002C227.325 64.3867 227.023 64.077 226.819 63.7043C226.605 63.3176 226.496 62.8815 226.503 62.4395C226.496 61.9933 226.608 61.5534 226.828 61.1655C227.038 60.7965 227.343 60.4905 227.711 60.2793C228.096 60.0658 228.529 59.9538 228.969 59.9538C229.41 59.9538 229.843 60.0658 230.228 60.2793C230.594 60.4917 230.897 60.7975 231.106 61.1655C231.326 61.5538 231.441 61.9929 231.44 62.4395L231.164 62.6532C231.17 63.0576 231.068 63.4562 230.867 63.807C230.673 64.1437 230.395 64.4232 230.059 64.6171C229.706 64.8194 229.306 64.9227 228.901 64.916ZM228.972 64.2924C229.294 64.2977 229.612 64.2147 229.89 64.0521C230.159 63.8923 230.38 63.6629 230.529 63.3879C230.684 63.0949 230.765 62.7685 230.765 62.437C230.765 62.1055 230.684 61.7791 230.529 61.4861C230.378 61.2127 230.158 60.9839 229.89 60.8226C229.611 60.662 229.295 60.5775 228.974 60.5775C228.652 60.5775 228.336 60.662 228.057 60.8226C227.787 60.9837 227.564 61.2124 227.409 61.4861C227.252 61.7783 227.169 62.105 227.169 62.437C227.169 62.769 227.252 63.0958 227.409 63.3879C227.563 63.6665 227.79 63.8978 228.065 64.0571C228.341 64.2164 228.654 64.2977 228.972 64.2924ZM231.093 64.8713C231.001 64.8744 230.912 64.8407 230.845 64.7778C230.812 64.7461 230.786 64.7079 230.77 64.6657C230.753 64.6234 230.745 64.5781 230.747 64.5326V63.0094L230.916 62.3061L231.44 62.4395L231.44 64.5326C231.442 64.5781 231.434 64.6235 231.417 64.6657C231.4 64.708 231.374 64.7462 231.342 64.7777C231.308 64.809 231.269 64.8334 231.227 64.8495C231.184 64.8655 231.139 64.873 231.093 64.8713Z" fill="white"/>
    <path d="M234.468 64.916C234.114 64.9153 233.763 64.8551 233.429 64.738C233.11 64.6347 232.822 64.4505 232.594 64.203C232.564 64.1719 232.54 64.134 232.526 64.0923C232.512 64.0506 232.508 64.0063 232.514 63.9627C232.528 63.8713 232.575 63.7883 232.647 63.7309C232.718 63.6762 232.807 63.6504 232.896 63.6587C232.985 63.667 233.067 63.7087 233.127 63.7756C233.28 63.9491 233.474 64.081 233.691 64.159C233.939 64.2504 234.203 64.2956 234.468 64.2924C234.8 64.3201 235.133 64.2406 235.418 64.0654C235.507 64.0036 235.58 63.922 235.633 63.8269C235.685 63.7317 235.715 63.6257 235.72 63.5172C235.719 63.4103 235.691 63.3054 235.638 63.2126C235.585 63.1198 235.509 63.0421 235.418 62.9871C235.112 62.8115 234.773 62.7009 234.423 62.6623C233.949 62.6166 233.495 62.4444 233.11 62.1636C232.981 62.0636 232.876 61.9354 232.803 61.7887C232.731 61.6421 232.693 61.4808 232.692 61.3171C232.682 61.0445 232.767 60.7769 232.932 60.5601C233.099 60.3525 233.32 60.1952 233.571 60.1054C233.853 60.0018 234.15 59.9505 234.45 59.9538C234.803 59.9449 235.153 60.0151 235.475 60.1592C235.749 60.2845 235.988 60.474 236.172 60.7116C236.2 60.7445 236.221 60.7829 236.233 60.8243C236.245 60.8656 236.249 60.9091 236.243 60.9519C236.236 60.9945 236.22 61.035 236.195 61.0704C236.171 61.1059 236.139 61.1353 236.101 61.1565C236.027 61.1988 235.941 61.2132 235.857 61.197C235.766 61.1826 235.683 61.1369 235.622 61.0678C235.483 60.9018 235.306 60.7719 235.107 60.6893C234.892 60.6052 234.663 60.5641 234.432 60.5684C234.158 60.5548 233.885 60.6246 233.651 60.7689C233.563 60.8204 233.49 60.8938 233.439 60.9821C233.387 61.0703 233.36 61.1703 233.358 61.2724C233.355 61.4001 233.394 61.5252 233.469 61.6286C233.57 61.7502 233.702 61.8425 233.851 61.8961C234.095 61.9906 234.35 62.0564 234.61 62.0924C234.975 62.1395 235.331 62.2461 235.662 62.4081C235.886 62.5181 236.077 62.6876 236.212 62.8984C236.332 63.1056 236.388 63.3437 236.374 63.5829C236.36 63.8221 236.276 64.0519 236.133 64.2435C235.955 64.4654 235.722 64.636 235.457 64.738C235.142 64.8619 234.806 64.9224 234.468 64.916Z" fill="white"/>
    <path d="M237.246 60.7737C237.205 60.7751 237.165 60.7683 237.126 60.7538C237.088 60.7393 237.053 60.7173 237.024 60.6892C236.995 60.6626 236.972 60.6302 236.957 60.594C236.942 60.5579 236.934 60.5189 236.935 60.4797C236.933 60.439 236.941 60.3985 236.956 60.3608C236.971 60.3232 236.994 60.2892 237.024 60.2611C237.084 60.2046 237.164 60.1742 237.246 60.1766H239.509C239.592 60.1742 239.671 60.2046 239.731 60.2611C239.761 60.2892 239.784 60.3232 239.799 60.3609C239.814 60.3986 239.821 60.4391 239.82 60.4797C239.821 60.5189 239.813 60.5579 239.798 60.594C239.783 60.6301 239.76 60.6626 239.731 60.6892C239.702 60.7173 239.667 60.7393 239.629 60.7538C239.591 60.7683 239.55 60.7751 239.509 60.7737H237.246ZM239.456 64.8714C239.166 64.8773 238.879 64.8026 238.629 64.6555C238.378 64.5085 238.173 64.2948 238.036 64.0382C237.89 63.7659 237.817 63.4607 237.823 63.1519V58.7959C237.82 58.7037 237.853 58.614 237.915 58.5465C237.947 58.514 237.985 58.4886 238.027 58.4717C238.069 58.4549 238.115 58.4471 238.16 58.4487C238.206 58.4471 238.251 58.4549 238.294 58.4717C238.337 58.4886 238.376 58.5141 238.408 58.5466C238.441 58.5792 238.466 58.6181 238.483 58.661C238.5 58.7039 238.508 58.7498 238.506 58.7959V63.1519C238.495 63.425 238.591 63.6918 238.772 63.8957C238.859 63.9906 238.964 64.0657 239.082 64.1157C239.2 64.1657 239.328 64.1895 239.456 64.1855H239.696C239.739 64.1841 239.782 64.192 239.822 64.2089C239.862 64.2258 239.897 64.2512 239.926 64.2833C239.987 64.3519 240.019 64.4411 240.015 64.5326C240.017 64.5789 240.008 64.6249 239.99 64.6673C239.972 64.7098 239.944 64.7475 239.909 64.7778C239.835 64.8411 239.74 64.8745 239.642 64.8714H239.456Z" fill="white"/>
  </g>
  <defs>
    <clipPath id="clip0_322_1075">
      <rect width="253" height="92" fill="white"/>
    </clipPath>
  </defs>
</svg>