<svg xmlns="http://www.w3.org/2000/svg" width="122" height="166" viewBox="0 0 122 166" fill="none">
  <g clip-path="url(#clip0_6_333)">
    <path d="M0.863655 52.6008V40.4765L12.7537 41.1302C13.1084 38.6006 13.6984 36.1099 14.5161 33.6907L4.46049 26.9888L9.82098 17.8057L20.687 22.3657C22.156 20.5353 23.7977 18.8515 25.5893 17.3378L19.0223 8.99557L27.9156 4.04628L36.1902 10.9868C38.383 10.1049 40.6436 9.40326 42.9496 8.88881L40.18 0.669527L50.5607 0L55.611 7.76205C58.0805 7.85064 60.5419 8.09795 62.9798 8.50246L63.5526 1.58412L73.7803 4.54025L75.6695 11.9581C78.0392 12.8624 80.3592 13.8927 82.6196 15.0447L85.8025 10.0819L94.7618 15.7962L93.8501 22.0755C95.8618 23.5945 97.7973 25.2017 99.6375 26.8954L99.6603 26.9168L99.6651 26.9142L104.706 24.2144L111.669 31.8486L108.418 36.4496L108.031 36.9992C107.186 36.0007 106.344 34.9982 105.449 34.0474C101.832 30.1276 97.7751 26.641 93.3589 23.6572C88.9132 20.6834 84.1103 18.2861 79.0646 16.5224C74.0033 14.7223 68.6984 13.7056 63.3322 13.5072C57.9233 13.2821 52.5234 14.1318 47.4429 16.0075C42.3192 17.8991 37.7324 21.0159 34.0802 25.0877C30.4635 29.2046 27.9177 34.1551 26.6695 39.4982C25.4575 44.8048 25.2362 50.2908 26.0168 55.6783C27.5316 66.4331 32.4797 76.4734 39.339 84.7131C42.7793 88.8441 46.6933 92.5536 50.9998 95.7645C55.2964 98.987 59.985 101.647 64.9521 103.679C69.9107 105.729 75.1308 107.073 80.4605 107.672C85.7931 108.304 91.1954 107.973 96.4119 106.695C101.621 105.383 106.454 102.871 110.529 99.3599C112.542 97.6052 114.326 95.6014 115.837 93.3964C115.862 93.3552 115.884 93.3131 115.909 93.2718L116.642 94.2242L121.976 101.142L116.57 108.274L109.686 102.806C108.073 104.268 106.335 105.585 104.493 106.743L107.598 115.495L98.6718 119.744L93.3249 111.595C90.9316 112.234 88.4919 112.683 86.0284 112.937L85.7157 122.513H74.0779L71.7939 112.526C68.9639 112.085 66.167 111.452 63.4224 110.631L58.767 119.455L46.2711 114.342L48.3968 104.126C45.659 102.547 43.0214 100.8 40.4991 98.8943L31.5577 104.852L20.9876 95.0345L27.9031 86.9517C25.851 84.5156 23.9588 81.9483 22.2384 79.266L10.4745 80.7775L4.53162 68.3057L15.071 64.2798C14.1594 61.5068 13.4629 58.6672 12.9878 55.7865L0.863655 52.6008Z" fill="#CE2525"/>
    <path d="M110.182 98.9491C106.102 102.269 101.306 104.591 96.1763 105.728C91.0676 106.876 85.7961 107.103 80.6083 106.398C75.4209 105.722 70.3532 104.322 65.5525 102.238C55.9321 98.0538 47.4353 91.6442 40.757 83.5334C34.1289 75.4823 29.4193 65.7247 28.0193 55.3999C27.2427 50.2608 27.4216 45.0219 28.5468 39.9482C29.6936 34.9 32.0674 30.215 35.4567 26.3108C38.894 22.4369 43.2211 19.4628 48.0629 17.6464C52.9335 15.8314 58.1016 14.9545 63.2962 15.0618C68.5225 15.1651 73.7027 16.0659 78.6589 17.7333C83.6417 19.3831 88.3993 21.6519 92.8208 24.4868C97.2697 27.3118 101.378 30.6439 105.063 34.4166C105.995 35.3521 106.87 36.3373 107.75 37.3182C107.76 37.3308 107.77 37.3438 107.78 37.3563L107.596 37.6174C107.586 37.6066 107.576 37.5962 107.567 37.5855L107.563 37.5909C104.835 34.5485 101.822 31.776 98.5655 29.3118C98.096 28.9572 97.6214 28.6092 97.1416 28.2676L97.1423 28.2672L97.1155 28.2476C91.4092 24.1372 84.9976 21.1159 78.2012 19.3346C54.0444 13.1613 33.0771 26.7075 34.1868 51.7578C35.3761 78.6025 60.7355 102.945 87.3177 104.18C94.6252 104.519 101.051 102.998 106.296 100.116C109.782 98.2099 112.846 95.6133 115.302 92.4839L115.714 93.0183C115.669 93.0863 115.628 93.1582 115.584 93.2257C114.029 95.3533 112.215 97.2762 110.182 98.9491Z" fill="#22252A"/>
    <path d="M84.2217 54.3478L95.9372 38.905C95.9372 38.905 84.0249 32.612 67.9751 45.8118L86.3045 59.5392L84.2217 54.3478ZM81.0528 53.5018L90.5393 41.017C90.7459 40.7368 91.0312 40.524 91.359 40.4056L93.1391 39.7329L82.2484 54.089L82.393 54.4459L81.0528 53.5018Z" fill="#22252A"/>
    <path d="M52.2367 84.5249C50.4866 82.899 48.8383 81.1676 47.3011 79.3403L49.295 78.1316C50.096 77.6596 51.0518 77.5237 51.9524 77.7536C52.853 77.9836 53.6248 78.5606 54.0982 79.358C54.5716 80.1553 54.7078 81.1078 54.4771 82.0062C54.2463 82.9045 53.6674 83.6753 52.8675 84.1491L52.2367 84.5249Z" fill="#22252A"/>
    <path d="M108.283 76.4249C119.431 66.1622 112.214 51.3172 112.214 51.3172L101.965 65.7834L90.4971 64.8395L63.2809 44.4559C59.7657 46.535 63.4837 56.9562 58.556 63.1893C55.4809 67.0868 50.355 71.4688 44.5515 75.7683C45.2514 76.7534 45.9834 77.7254 46.7501 78.6633L48.856 77.3917C49.854 76.8021 51.0457 76.6316 52.1687 76.9177C53.2918 77.2039 54.2543 77.9231 54.8445 78.9173C55.4346 79.9115 55.6042 81.0992 55.3158 82.2191C55.0273 83.339 54.3046 84.2994 53.3065 84.889L52.8984 85.1326C53.5734 85.7377 54.2671 86.3323 54.9636 86.9057L55.7893 86.3963C63.645 81.7631 73.3183 80.909 82.6807 80.0874C92.0763 79.2594 100.943 78.4782 105.933 73.889C110.851 69.3615 112.206 60.5805 111.566 55.9699C112.789 60.5988 113.534 68.652 106.812 74.8395C101.5 79.7245 92.4104 80.5279 82.7982 81.3771C73.578 82.185 64.0535 83.0242 56.4524 87.5121L56.0403 87.7701C56.6499 88.2505 57.2636 88.7162 57.8959 89.1715C73.0277 80.5459 97.209 86.6115 108.283 76.4249ZM63.1651 54.6121C63.228 52.2355 63.4517 49.8657 63.8347 47.5188L68.7594 51.1322L68.1679 58.691L63.1651 54.6121ZM63.3724 72.4781C63.2349 72.3899 63.12 72.2709 63.0367 72.1306C62.9332 71.9563 62.8809 71.7566 62.8857 71.554C62.8906 71.3514 62.9524 71.1542 63.0641 70.9848L69.63 61.0897C69.7892 60.8517 70.0365 60.6862 70.3176 60.6294C70.5988 60.5725 70.8909 60.629 71.1301 60.7865C71.3693 60.944 71.536 61.1896 71.5937 61.4696C71.6515 61.7496 71.5956 62.0411 71.4382 62.2803L64.8722 72.1754C64.7936 72.2935 64.6925 72.3951 64.5746 72.4742C64.4566 72.5534 64.3242 72.6086 64.1849 72.6367C64.0456 72.6649 63.9021 72.6653 63.7627 72.6381C63.6233 72.6109 63.4907 72.5565 63.3724 72.4781ZM66.5653 74.7005C66.4289 74.6109 66.3142 74.4922 66.2295 74.353C66.126 74.1788 66.0736 73.979 66.0785 73.7764C66.0833 73.5738 66.1451 73.3766 66.2568 73.2071L72.8228 63.3121C72.9822 63.0743 73.2294 62.909 73.5104 62.8523C73.7914 62.7957 74.0834 62.8522 74.3224 63.0096C74.5615 63.167 74.7282 63.4125 74.786 63.6923C74.8438 63.9721 74.7881 64.2635 74.631 64.5027L68.0637 74.3911C67.9857 74.5096 67.885 74.6116 67.7674 74.6913C67.6498 74.771 67.5176 74.8268 67.3785 74.8556C67.2393 74.8843 67.0958 74.8854 66.9563 74.8588C66.8167 74.8322 66.6839 74.7784 66.5653 74.7005ZM69.3587 77.2473C69.2223 77.1576 69.1076 77.0389 69.0228 76.8997C68.9188 76.7251 68.8667 76.5245 68.8727 76.3214C68.8787 76.1183 68.9426 75.921 69.0568 75.7526L75.6162 65.8588C75.7752 65.6201 76.0225 65.4539 76.304 65.3968C76.5855 65.3396 76.8781 65.396 77.1176 65.5537C77.3571 65.7115 77.5239 65.9576 77.5815 66.238C77.639 66.5184 77.5825 66.8103 77.4244 67.0495L70.8571 76.9379C70.7791 77.0564 70.6784 77.1584 70.5608 77.2381C70.4432 77.3178 70.311 77.3736 70.1719 77.4023C70.0327 77.431 69.8892 77.4321 69.7497 77.4055C69.6101 77.3789 69.4773 77.3251 69.3587 77.2473ZM97.3971 76.7328C95.9556 77.0438 94.4963 77.2661 93.0276 77.3986L91.5577 66.5133L95.4859 66.8147L97.3971 76.7328Z" fill="#22252A"/>
    <path d="M11.7383 137.089V145.134L9.65651 147.222H2.56896V150.556H0V135H9.65651L11.7383 137.089ZM2.56896 145.044H9.16932V137.178H2.56896V145.044Z" fill="#CE2525"/>
    <path d="M13.7761 150.556V140.333L15.9909 138.111H22.5025V140.422H16.345V150.556L13.7761 150.556Z" fill="#22252A"/>
    <path d="M24.0522 148.378V140.289L26.2228 138.111H32.9559L35.1264 140.289V148.378L32.9559 150.556H26.2228L24.0522 148.378ZM26.6215 148.378H32.5571V140.289H26.6215L26.6215 148.378Z" fill="#22252A"/>
    <path d="M43.21 148.467V137.089L45.2921 135H54.3727V137.266H45.7793V148.289H52.7558V143.555H48.5255V141.422H55.1258V150.556H45.2921L43.21 148.467Z" fill="#CE2525"/>
    <path d="M57.3625 148.334V143.445L65.8235 143.222V140.333H57.8055V138.111H66.1774L68.3927 140.333V150.556H59.5773L57.3625 148.334ZM59.9315 145.311V148.378H65.8235V144.867L59.9315 145.311Z" fill="#22252A"/>
    <path d="M70.8729 150.556V140.333L73.0877 138.111H79.599V140.422H73.4422V150.556L70.8729 150.556Z" fill="#22252A"/>
    <path d="M81.0609 148.334V143.445L89.5216 143.222V140.333H81.5039V138.111H89.8755L92.0908 140.333V150.556H83.2757L81.0609 148.334ZM83.6302 145.311V148.378H89.5216V144.867L83.6302 145.311Z" fill="#22252A"/>
    <path d="M95.1909 153.667V151.445H103.032V148.778H96.6082L94.438 146.6V140.289L96.7858 138.111H105.601V151.267L103.209 153.667L95.1909 153.667ZM97.0072 140.333V146.6H103.032V140.333L97.0072 140.333Z" fill="#22252A"/>
    <path d="M107.948 148.378V140.289L110.118 138.111H118.8V145.044H110.517V148.334H118.358V150.556H110.118L107.948 148.378ZM110.517 143.4L116.475 143.178V140.245H110.517V143.4Z" fill="#22252A"/>
    <path d="M11.5856 164.801C11.5475 164.802 11.5095 164.796 11.474 164.782C11.4384 164.768 11.4062 164.747 11.3792 164.72C11.3522 164.693 11.331 164.66 11.317 164.625C11.3031 164.589 11.2966 164.551 11.298 164.513V159.31C11.2966 159.271 11.3031 159.233 11.317 159.198C11.331 159.162 11.3522 159.13 11.3792 159.103C11.4062 159.076 11.4384 159.054 11.474 159.04C11.5095 159.026 11.5475 159.02 11.5856 159.021H12.9134C13.3103 159.017 13.7046 159.088 14.0748 159.232C14.4166 159.366 14.7269 159.57 14.9859 159.831C15.2429 160.093 15.4448 160.404 15.5795 160.745C15.8597 161.496 15.8597 162.323 15.5795 163.073C15.4457 163.416 15.2438 163.728 14.9859 163.99C14.7271 164.252 14.4168 164.456 14.0748 164.59C13.7047 164.734 13.3104 164.806 12.9134 164.801L11.5856 164.801ZM11.8733 164.283H12.9134C13.3332 164.291 13.7474 164.185 14.1118 163.976C14.455 163.774 14.7369 163.483 14.9269 163.132C15.1207 162.753 15.2218 162.333 15.2218 161.907C15.2218 161.481 15.1207 161.062 14.9269 160.683C14.7374 160.333 14.4554 160.042 14.1118 159.842C13.7466 159.635 13.3327 159.531 12.9134 159.539H11.8733V164.283Z" fill="#22252A"/>
    <path d="M17.1836 164.801C17.1458 164.805 17.1077 164.8 17.0721 164.787C17.0364 164.774 17.004 164.754 16.9772 164.727C16.9504 164.7 16.9298 164.667 16.9171 164.631C16.9043 164.596 16.8997 164.557 16.9034 164.52V161.034C16.9012 160.996 16.9069 160.958 16.92 160.921C16.9331 160.885 16.9534 160.853 16.9796 160.825C17.0058 160.797 17.0375 160.775 17.0726 160.759C17.1077 160.744 17.1455 160.736 17.1837 160.736C17.2219 160.736 17.2597 160.744 17.2948 160.759C17.3299 160.775 17.3616 160.797 17.3878 160.825C17.4141 160.853 17.4344 160.885 17.4475 160.921C17.4606 160.958 17.4662 160.996 17.464 161.034V164.52C17.4677 164.557 17.463 164.596 17.4502 164.631C17.4374 164.667 17.4168 164.7 17.39 164.727C17.3632 164.754 17.3308 164.774 17.2951 164.787C17.2594 164.8 17.2213 164.805 17.1836 164.801ZM17.1393 162.307C17.1493 162.017 17.2317 161.735 17.379 161.486C17.5173 161.251 17.7127 161.055 17.9469 160.916C18.1828 160.777 18.4519 160.705 18.7252 160.709C18.9048 160.699 19.0841 160.732 19.2489 160.804C19.3031 160.825 19.3476 160.866 19.3735 160.918C19.3995 160.97 19.405 161.03 19.3891 161.086C19.3838 161.116 19.3722 161.145 19.355 161.17C19.3378 161.196 19.3154 161.217 19.2893 161.234C19.2368 161.26 19.1778 161.27 19.1196 161.263C19.0534 161.259 18.9782 161.253 18.8947 161.249C18.6468 161.221 18.3958 161.25 18.1608 161.334C17.9589 161.407 17.7822 161.536 17.652 161.708C17.5247 161.881 17.4586 162.092 17.464 162.307L17.1393 162.307Z" fill="#22252A"/>
    <path d="M20.6795 159.983C20.6272 159.984 20.5754 159.974 20.5272 159.953C20.479 159.933 20.4355 159.903 20.3993 159.865C20.361 159.827 20.3308 159.782 20.3105 159.733C20.2902 159.683 20.2803 159.63 20.2814 159.576C20.2788 159.521 20.2884 159.467 20.3095 159.416C20.3305 159.365 20.3625 159.32 20.4031 159.284C20.481 159.213 20.5823 159.175 20.687 159.176C20.7893 159.176 20.888 159.214 20.9634 159.284C21.004 159.32 21.036 159.365 21.0571 159.416C21.0781 159.467 21.0877 159.521 21.0852 159.576C21.0856 159.63 21.0754 159.683 21.0551 159.732C21.0349 159.782 21.005 159.827 20.9673 159.865C20.9296 159.903 20.8847 159.933 20.8353 159.953C20.7858 159.973 20.7329 159.984 20.6795 159.983ZM20.687 164.801C20.6485 164.804 20.6098 164.799 20.5735 164.785C20.5372 164.772 20.5043 164.751 20.4769 164.723C20.4496 164.696 20.4285 164.663 20.4151 164.626C20.4017 164.59 20.3963 164.551 20.3993 164.513V161.042C20.3962 161.003 20.4016 160.964 20.4149 160.928C20.4283 160.891 20.4494 160.858 20.4767 160.831C20.5041 160.803 20.537 160.782 20.5733 160.768C20.6097 160.755 20.6484 160.75 20.687 160.753C20.7243 160.751 20.7615 160.757 20.7963 160.771C20.8312 160.784 20.863 160.804 20.8897 160.83C20.9162 160.858 20.9368 160.892 20.9501 160.928C20.9634 160.964 20.9692 161.003 20.9672 161.042V164.513C20.9692 164.551 20.9634 164.59 20.9501 164.626C20.9368 164.662 20.9162 164.695 20.8897 164.723C20.863 164.749 20.8312 164.77 20.7963 164.783C20.7615 164.796 20.7243 164.802 20.687 164.801Z" fill="#22252A"/>
    <path d="M23.792 164.801C23.7333 164.8 23.6763 164.782 23.6287 164.747C23.5812 164.713 23.5455 164.664 23.5266 164.608L21.8892 161.123C21.8747 161.093 21.8665 161.061 21.8652 161.027C21.8639 160.994 21.8695 160.961 21.8817 160.93C21.8954 160.897 21.9154 160.867 21.9407 160.842C21.966 160.816 21.9961 160.796 22.0291 160.782C22.0593 160.766 22.0928 160.756 22.1272 160.753C22.1616 160.751 22.1961 160.756 22.2284 160.768C22.2922 160.792 22.3447 160.84 22.3758 160.901L23.947 164.312H23.6445L25.1934 160.901C25.2067 160.868 25.2271 160.839 25.2533 160.815C25.2795 160.791 25.3108 160.774 25.3446 160.764C25.4137 160.742 25.4885 160.745 25.5548 160.775C25.6196 160.805 25.6699 160.86 25.6951 160.927C25.7072 160.957 25.7129 160.989 25.7116 161.022C25.7103 161.054 25.7021 161.086 25.6876 161.115L24.0722 164.608C24.0513 164.666 24.013 164.715 23.9628 164.75C23.9126 164.784 23.8529 164.802 23.792 164.801Z" fill="#22252A"/>
    <path d="M28.1733 164.838C27.8037 164.845 27.4387 164.755 27.1151 164.575C26.8117 164.404 26.5615 164.152 26.3922 163.847C26.2137 163.52 26.1234 163.153 26.1303 162.781C26.1225 162.409 26.2075 162.041 26.3775 161.711C26.5375 161.404 26.7802 161.147 27.0781 160.971C27.3761 160.795 27.7172 160.707 28.0628 160.716C28.406 160.708 28.7445 160.796 29.0401 160.971C29.3172 161.141 29.5408 161.386 29.6855 161.678C29.842 161.997 29.9203 162.35 29.9139 162.706C29.9156 162.741 29.9099 162.776 29.8972 162.809C29.8845 162.841 29.865 162.871 29.8402 162.896C29.8144 162.919 29.7842 162.938 29.7513 162.95C29.7184 162.962 29.6834 162.967 29.6485 162.966H26.514V162.492H29.7074L29.3903 162.721C29.3993 162.456 29.3463 162.193 29.2356 161.952C29.1352 161.734 28.9753 161.549 28.7744 161.419C28.561 161.287 28.3137 161.22 28.0628 161.226C27.8029 161.221 27.5469 161.29 27.3253 161.426C27.1131 161.56 26.943 161.751 26.8346 161.978C26.7155 162.228 26.6562 162.503 26.6614 162.781C26.6558 163.06 26.7232 163.335 26.8569 163.58C26.9826 163.807 27.1673 163.996 27.3915 164.127C27.6292 164.264 27.8994 164.333 28.1733 164.328C28.3555 164.327 28.5363 164.295 28.7082 164.235C28.8655 164.185 29.0119 164.106 29.1396 164.001C29.1916 163.958 29.2565 163.933 29.3241 163.931C29.3879 163.927 29.4509 163.947 29.501 163.987C29.5298 164.011 29.5534 164.04 29.5705 164.073C29.5877 164.106 29.5978 164.142 29.6005 164.18C29.6016 164.214 29.5946 164.248 29.5798 164.279C29.5651 164.31 29.5431 164.337 29.5158 164.357C29.3312 164.508 29.1214 164.624 28.8962 164.701C28.665 164.789 28.4204 164.835 28.1733 164.838Z" fill="#22252A"/>
    <path d="M31.1606 164.801C31.1221 164.803 31.0837 164.797 31.0475 164.784C31.0114 164.77 30.9784 164.75 30.9504 164.723C30.9243 164.696 30.9039 164.664 30.8906 164.629C30.8773 164.594 30.8713 164.557 30.8729 164.52V161.042C30.8698 161.003 30.8751 160.964 30.8885 160.928C30.9018 160.891 30.9229 160.858 30.9503 160.831C30.9776 160.803 31.0106 160.782 31.0469 160.768C31.0832 160.755 31.122 160.75 31.1606 160.753C31.1979 160.751 31.2351 160.757 31.2699 160.771C31.3048 160.784 31.3365 160.804 31.3633 160.83C31.3898 160.859 31.4104 160.892 31.4237 160.928C31.437 160.964 31.4428 161.003 31.4408 161.042V164.52C31.4429 164.557 31.437 164.594 31.4237 164.63C31.4104 164.665 31.3898 164.697 31.3634 164.723C31.3369 164.75 31.3052 164.77 31.2703 164.784C31.2353 164.797 31.198 164.803 31.1606 164.801ZM34.3321 164.801C34.294 164.802 34.2561 164.796 34.2206 164.782C34.1851 164.768 34.1528 164.747 34.1257 164.72C34.0992 164.694 34.0784 164.662 34.0644 164.628C34.0504 164.594 34.0436 164.557 34.0445 164.52V162.596C34.0548 162.333 33.9949 162.072 33.871 161.841C33.7613 161.649 33.597 161.494 33.3991 161.397C33.1911 161.301 32.965 161.25 32.7361 161.249C32.5071 161.248 32.2804 161.295 32.0714 161.389C31.887 161.475 31.7281 161.608 31.6105 161.774C31.4974 161.937 31.438 162.131 31.4408 162.329H31.0351C31.0403 162.034 31.1271 161.745 31.2858 161.497C31.4419 161.253 31.6579 161.054 31.9129 160.919C32.1809 160.777 32.4801 160.705 32.7832 160.709C33.1086 160.703 33.4304 160.778 33.72 160.927C33.9949 161.072 34.2217 161.294 34.3726 161.567C34.5408 161.883 34.6234 162.237 34.6122 162.596V164.52C34.6128 164.557 34.6059 164.593 34.592 164.628C34.5781 164.662 34.5575 164.693 34.5314 164.72C34.5053 164.746 34.4742 164.767 34.4399 164.781C34.4057 164.794 34.3691 164.801 34.3321 164.801Z" fill="#22252A"/>
    <path d="M37.7688 161.397C37.7349 161.398 37.7012 161.392 37.6695 161.38C37.6379 161.368 37.6089 161.35 37.5843 161.327C37.5604 161.304 37.5415 161.277 37.5288 161.247C37.5161 161.217 37.5099 161.185 37.5106 161.152C37.5094 161.119 37.5153 161.085 37.528 161.054C37.5407 161.022 37.5599 160.994 37.5843 160.971C37.6341 160.924 37.7004 160.899 37.7688 160.901H39.6496C39.7179 160.899 39.7841 160.924 39.834 160.971C39.8584 160.994 39.8775 161.022 39.8902 161.054C39.9029 161.085 39.9089 161.119 39.9078 161.152C39.9084 161.185 39.9021 161.217 39.8894 161.247C39.8767 161.277 39.8578 161.304 39.834 161.327C39.8094 161.35 39.7804 161.368 39.7488 161.38C39.7171 161.392 39.6834 161.398 39.6496 161.397H37.7688ZM39.6053 164.801C39.3642 164.806 39.1263 164.744 38.918 164.622C38.7098 164.499 38.5392 164.322 38.4251 164.109C38.3042 163.883 38.2432 163.629 38.2481 163.372V159.754C38.2468 159.716 38.253 159.678 38.2663 159.642C38.2796 159.607 38.2997 159.574 38.3256 159.546C38.3519 159.519 38.3835 159.498 38.4185 159.484C38.4535 159.47 38.491 159.464 38.5286 159.465C38.5667 159.464 38.6047 159.47 38.6403 159.484C38.6758 159.498 38.7081 159.519 38.735 159.546C38.762 159.573 38.7831 159.606 38.7971 159.642C38.811 159.677 38.8174 159.715 38.816 159.754V163.372C38.8069 163.599 38.8864 163.821 39.0375 163.99C39.1092 164.069 39.1971 164.132 39.2951 164.173C39.3931 164.215 39.499 164.235 39.6053 164.231H39.8046C39.8405 164.23 39.8762 164.237 39.9093 164.251C39.9424 164.265 39.9721 164.286 39.9963 164.312C40.0463 164.369 40.0727 164.444 40.07 164.519C40.0713 164.558 40.0641 164.596 40.0488 164.631C40.0335 164.667 40.0105 164.698 39.9815 164.723C39.92 164.776 39.8411 164.804 39.7603 164.801H39.6053Z" fill="#22252A"/>
    <path d="M42.8287 164.838C42.4598 164.844 42.0959 164.752 41.7739 164.572C41.4687 164.398 41.2162 164.145 41.0436 163.839C40.8693 163.512 40.7781 163.147 40.7781 162.777C40.7781 162.406 40.8693 162.041 41.0436 161.715C41.2162 161.409 41.4687 161.155 41.7739 160.982C42.0974 160.807 42.4592 160.716 42.8268 160.716C43.1944 160.716 43.5562 160.807 43.8797 160.982C44.1832 161.156 44.4342 161.409 44.6062 161.715C44.787 162.04 44.881 162.408 44.8789 162.781C44.8851 163.151 44.7921 163.517 44.6097 163.839C44.4357 164.144 44.1837 164.397 43.8796 164.572C43.5591 164.753 43.1964 164.845 42.8287 164.838ZM42.8287 164.32C43.0976 164.324 43.3627 164.255 43.5957 164.12C43.8191 163.99 44.0026 163.8 44.1266 163.573C44.2572 163.329 44.3233 163.057 44.3186 162.781C44.3231 162.503 44.257 162.23 44.1266 161.985C44.0037 161.756 43.82 161.565 43.5957 161.434C43.3613 161.303 43.0972 161.234 42.8287 161.234C42.5602 161.234 42.2961 161.303 42.0616 161.434C41.8367 161.565 41.6518 161.756 41.5267 161.985C41.394 162.229 41.3267 162.503 41.3312 162.781C41.3264 163.057 41.3938 163.33 41.5267 163.573C41.6529 163.8 41.8376 163.989 42.0616 164.12C42.2946 164.255 42.5597 164.324 42.8287 164.32Z" fill="#22252A"/>
    <path d="M48.0504 164.801C47.9743 164.8 47.9016 164.77 47.8478 164.716C47.794 164.662 47.7635 164.589 47.7627 164.513V159.31C47.7613 159.271 47.7678 159.233 47.7818 159.198C47.7958 159.162 47.8169 159.13 47.8439 159.103C47.8709 159.076 47.9032 159.054 47.9387 159.04C47.9742 159.026 48.0123 159.02 48.0504 159.021H51.5096C51.5474 159.02 51.5851 159.026 51.6205 159.039C51.6559 159.052 51.6884 159.073 51.716 159.098C51.743 159.125 51.7642 159.157 51.7782 159.192C51.7922 159.227 51.7987 159.264 51.7973 159.302C51.7975 159.338 51.7905 159.374 51.7765 159.407C51.7625 159.44 51.742 159.47 51.716 159.495C51.689 159.522 51.6567 159.543 51.6212 159.557C51.5857 159.571 51.5477 159.577 51.5096 159.576H48.3381V161.618H50.6468C50.685 161.617 50.723 161.624 50.7585 161.638C50.794 161.652 50.8262 161.673 50.8532 161.7C50.9051 161.754 50.9342 161.825 50.9342 161.9C50.9342 161.975 50.9051 162.046 50.8532 162.1C50.8261 162.127 50.7938 162.148 50.7584 162.162C50.7229 162.176 50.6849 162.182 50.6468 162.181H48.3381V164.513C48.3386 164.55 48.3318 164.587 48.3178 164.622C48.3039 164.657 48.2831 164.689 48.2568 164.716C48.2303 164.744 48.1983 164.766 48.1627 164.78C48.1271 164.795 48.0888 164.802 48.0504 164.801Z" fill="#22252A"/>
    <path d="M53.1542 159.983C53.1019 159.984 53.0501 159.974 53.0019 159.953C52.9537 159.933 52.9102 159.903 52.874 159.865C52.8358 159.827 52.8055 159.782 52.7852 159.733C52.765 159.683 52.755 159.63 52.7561 159.576C52.7535 159.521 52.7631 159.467 52.7842 159.416C52.8052 159.365 52.8372 159.32 52.8778 159.284C52.9557 159.213 53.057 159.175 53.1617 159.176C53.264 159.176 53.3627 159.214 53.4381 159.284C53.4787 159.32 53.5107 159.365 53.5318 159.416C53.5528 159.467 53.5624 159.521 53.5599 159.576C53.5603 159.63 53.5501 159.683 53.5298 159.732C53.5096 159.782 53.4798 159.827 53.442 159.865C53.4043 159.903 53.3594 159.933 53.31 159.953C53.2606 159.973 53.2076 159.984 53.1542 159.983ZM53.1617 164.801C53.1232 164.804 53.0845 164.799 53.0482 164.785C53.0119 164.772 52.979 164.751 52.9516 164.723C52.9243 164.696 52.9032 164.663 52.8898 164.626C52.8764 164.59 52.871 164.551 52.874 164.513V161.042C52.871 161.003 52.8763 160.964 52.8896 160.928C52.903 160.891 52.9241 160.858 52.9514 160.831C52.9788 160.803 53.0118 160.782 53.0481 160.768C53.0844 160.755 53.1232 160.75 53.1617 160.753C53.199 160.751 53.2362 160.757 53.2711 160.771C53.3059 160.784 53.3377 160.804 53.3644 160.83C53.3909 160.858 53.4115 160.892 53.4248 160.928C53.4381 160.964 53.444 161.003 53.4419 161.042V164.513C53.444 164.551 53.4381 164.59 53.4248 164.626C53.4115 164.662 53.3909 164.695 53.3644 164.723C53.3377 164.749 53.3059 164.77 53.2711 164.783C53.2362 164.796 53.199 164.802 53.1617 164.801Z" fill="#22252A"/>
    <path d="M54.7843 164.801C54.7495 164.803 54.7147 164.797 54.6823 164.784C54.6498 164.771 54.6204 164.752 54.5961 164.727C54.5499 164.679 54.5235 164.616 54.5224 164.549C54.5218 164.475 54.5495 164.404 54.5999 164.349L55.9571 162.647L56.2743 163.069L54.9833 164.712C54.9598 164.742 54.9295 164.766 54.8948 164.781C54.8601 164.797 54.8222 164.804 54.7843 164.801ZM57.7049 164.801C57.6553 164.803 57.606 164.793 57.5612 164.771C57.5165 164.745 57.4776 164.71 57.447 164.667L56.171 163.039L55.9496 162.847L54.6664 161.212C54.6179 161.16 54.5903 161.093 54.5889 161.022C54.5875 160.952 54.6125 160.883 54.6589 160.83C54.683 160.804 54.7127 160.783 54.7459 160.77C54.7791 160.756 54.8149 160.75 54.8506 160.753C54.8904 160.752 54.9299 160.76 54.9667 160.775C55.0035 160.79 55.0368 160.813 55.0645 160.841L56.3038 162.432L56.5027 162.595L57.8746 164.357C57.9029 164.386 57.9247 164.421 57.9387 164.459C57.9527 164.497 57.9585 164.538 57.9559 164.579C57.9524 164.611 57.9424 164.642 57.9265 164.67C57.9106 164.698 57.8893 164.722 57.8636 164.742C57.8188 164.779 57.7629 164.799 57.7049 164.801ZM56.5102 162.877L56.1488 162.507L57.4247 160.886C57.4505 160.845 57.4865 160.811 57.5291 160.788C57.5717 160.764 57.6196 160.752 57.6682 160.753C57.7039 160.75 57.7397 160.756 57.7728 160.77C57.806 160.783 57.8358 160.804 57.8599 160.83C57.9039 160.882 57.9264 160.948 57.9226 161.016C57.919 161.09 57.8918 161.161 57.8452 161.219L56.5102 162.877Z" fill="#22252A"/>
    <path d="M58.8629 166C58.8421 166.001 58.8213 165.998 58.8016 165.991C58.782 165.984 58.764 165.973 58.7487 165.959C58.735 165.945 58.7243 165.928 58.7174 165.91C58.7104 165.891 58.7073 165.871 58.7082 165.852C58.708 165.778 58.7312 165.707 58.7744 165.648C58.8187 165.587 58.864 165.521 58.9109 165.452C58.9533 165.381 58.9773 165.3 58.9805 165.218C58.9837 165.135 58.9662 165.053 58.9294 164.978C58.8957 164.921 58.8548 164.867 58.8077 164.82C58.761 164.773 58.7201 164.721 58.6859 164.664C58.6496 164.6 58.6317 164.527 58.6342 164.453C58.6319 164.398 58.6416 164.343 58.6626 164.292C58.6836 164.241 58.7154 164.195 58.7559 164.157C58.8037 164.117 58.8589 164.086 58.9185 164.068C58.9781 164.049 59.0408 164.042 59.1029 164.048C59.1651 164.054 59.2254 164.072 59.2805 164.102C59.3355 164.131 59.3841 164.172 59.4235 164.22C59.5245 164.361 59.5741 164.532 59.5638 164.705C59.5625 164.852 59.5427 164.999 59.5048 165.142C59.4672 165.289 59.4127 165.432 59.3423 165.567C59.2838 165.684 59.2066 165.79 59.1139 165.881C59.0486 165.952 58.9586 165.994 58.8629 166Z" fill="#22252A"/>
    <path d="M63.156 164.801C63.0717 164.804 62.9891 164.776 62.9235 164.723C62.893 164.698 62.8687 164.665 62.8527 164.629C62.8366 164.592 62.8292 164.552 62.831 164.513V159.31C62.8297 159.271 62.8362 159.233 62.8502 159.198C62.8642 159.162 62.8854 159.13 62.9124 159.103C62.9395 159.076 62.9717 159.054 63.0073 159.04C63.0428 159.026 63.0808 159.02 63.119 159.021H64.911C65.1892 159.017 65.4641 159.082 65.7114 159.21C65.9422 159.329 66.138 159.506 66.2792 159.724C66.4219 159.949 66.4952 160.212 66.4897 160.479C66.4935 160.732 66.4187 160.981 66.2758 161.19C66.1348 161.395 65.9413 161.559 65.7154 161.663C66.0269 161.741 66.3057 161.916 66.5117 162.163C66.7199 162.426 66.8272 162.756 66.8141 163.092C66.8203 163.403 66.7413 163.71 66.5857 163.979C66.4343 164.235 66.2161 164.443 65.9548 164.583C65.6719 164.732 65.3561 164.807 65.0365 164.801H63.156ZM63.4064 161.434H64.911C65.1772 161.444 65.4376 161.354 65.6413 161.182C65.7384 161.094 65.8147 160.985 65.8644 160.863C65.9141 160.741 65.9361 160.61 65.9287 160.479C65.9371 160.352 65.9155 160.225 65.8655 160.108C65.8156 159.991 65.7388 159.887 65.6413 159.806C65.4317 159.647 65.1736 159.566 64.911 159.576H63.4064V161.434ZM63.4064 164.246H65.0365C65.2537 164.25 65.4687 164.202 65.6633 164.105C65.8412 164.016 65.9897 163.877 66.0913 163.705C66.1983 163.519 66.2519 163.307 66.2462 163.092C66.2511 162.887 66.1973 162.685 66.0913 162.51C65.9872 162.344 65.8389 162.211 65.6633 162.126C65.468 162.031 65.2532 161.984 65.0365 161.989H63.4064V164.246Z" fill="#22252A"/>
    <path d="M69.6389 164.846C69.3134 164.851 68.9917 164.776 68.7021 164.627C68.4268 164.482 68.1998 164.26 68.0492 163.987C67.8808 163.671 67.798 163.316 67.8093 162.958V161.034C67.8089 160.997 67.8158 160.96 67.8298 160.926C67.8437 160.892 67.8644 160.86 67.8905 160.834C67.9166 160.808 67.9477 160.787 67.9819 160.773C68.0161 160.759 68.0528 160.752 68.0897 160.753C68.1278 160.751 68.1658 160.758 68.2013 160.772C68.2368 160.786 68.2691 160.807 68.2962 160.834C68.3226 160.86 68.3434 160.891 68.3573 160.926C68.3712 160.96 68.378 160.997 68.3771 161.034V162.958C68.3668 163.221 68.4267 163.481 68.5506 163.713C68.6605 163.905 68.825 164.06 69.0231 164.157C69.2309 164.253 69.4569 164.304 69.6858 164.305C69.9147 164.306 70.1413 164.258 70.3502 164.164C70.5348 164.079 70.6939 163.946 70.8116 163.78C70.9245 163.617 70.9837 163.423 70.9811 163.224H71.3864C71.3775 163.516 71.2916 163.801 71.1375 164.048C70.9834 164.296 70.7666 164.498 70.5092 164.634C70.2413 164.777 69.942 164.849 69.6389 164.846ZM71.2615 164.801C71.2242 164.803 71.1869 164.796 71.152 164.783C71.1171 164.77 71.0853 164.749 71.0585 164.723C71.0321 164.695 71.0116 164.662 70.9982 164.626C70.9849 164.59 70.9791 164.551 70.981 164.513V161.034C70.979 160.997 70.9848 160.959 70.9981 160.924C71.0115 160.889 71.0321 160.857 71.0585 160.83C71.085 160.804 71.1168 160.783 71.1517 160.77C71.1867 160.756 71.2241 160.751 71.2615 160.753C71.3379 160.75 71.4121 160.778 71.4679 160.83C71.4949 160.857 71.5161 160.889 71.53 160.924C71.544 160.959 71.5504 160.996 71.5489 161.034V164.513C71.5508 164.551 71.5446 164.59 71.5307 164.627C71.5167 164.663 71.4954 164.696 71.4679 164.723C71.4121 164.776 71.3379 164.803 71.2615 164.801Z" fill="#22252A"/>
    <path d="M73.2751 159.983C73.2228 159.984 73.1709 159.974 73.1227 159.953C73.0744 159.933 73.0309 159.903 72.9947 159.865C72.9564 159.827 72.9261 159.782 72.9058 159.733C72.8856 159.683 72.8756 159.63 72.8767 159.576C72.8742 159.521 72.8837 159.467 72.9047 159.416C72.9257 159.365 72.9576 159.32 72.9981 159.284C73.0761 159.213 73.1774 159.175 73.2821 159.176C73.3845 159.176 73.4834 159.214 73.5591 159.284C73.5996 159.32 73.6315 159.365 73.6525 159.416C73.6735 159.467 73.683 159.521 73.6805 159.576C73.6809 159.63 73.6707 159.683 73.6505 159.732C73.6303 159.782 73.6004 159.827 73.5627 159.865C73.525 159.903 73.4802 159.933 73.4308 159.953C73.3814 159.973 73.3285 159.984 73.2751 159.983ZM73.2821 164.801C73.2436 164.804 73.2048 164.799 73.1686 164.785C73.1324 164.772 73.0995 164.751 73.0722 164.723C73.0448 164.696 73.0238 164.663 73.0104 164.626C72.997 164.59 72.9916 164.551 72.9947 164.512V161.042C72.9916 161.003 72.9969 160.964 73.0102 160.928C73.0235 160.891 73.0446 160.858 73.0719 160.831C73.0993 160.803 73.1322 160.782 73.1685 160.768C73.2047 160.755 73.2435 160.75 73.2821 160.753C73.3194 160.751 73.3566 160.757 73.3915 160.771C73.4264 160.784 73.4583 160.804 73.485 160.83C73.5115 160.859 73.532 160.892 73.5453 160.928C73.5587 160.964 73.5645 161.003 73.5625 161.042V164.512C73.5645 164.551 73.5587 164.59 73.5453 164.626C73.532 164.662 73.5115 164.695 73.485 164.723C73.4582 164.749 73.4264 164.77 73.3915 164.783C73.3566 164.796 73.3194 164.802 73.2821 164.801Z" fill="#22252A"/>
    <path d="M75.8784 164.801C75.6899 164.804 75.5054 164.747 75.351 164.638C75.1915 164.524 75.0664 164.367 74.9896 164.186C74.8999 163.976 74.856 163.749 74.8607 163.52V159.302C74.8594 159.264 74.8657 159.227 74.8793 159.192C74.8928 159.156 74.9132 159.124 74.9393 159.097C74.9655 159.07 74.9968 159.049 75.0314 159.034C75.066 159.019 75.1032 159.011 75.1408 159.011C75.1785 159.011 75.2157 159.019 75.2503 159.034C75.2849 159.049 75.3162 159.07 75.3424 159.097C75.3685 159.124 75.3889 159.156 75.4024 159.192C75.416 159.227 75.4223 159.264 75.421 159.302V163.52C75.4132 163.702 75.458 163.882 75.55 164.039C75.5822 164.098 75.6296 164.148 75.6873 164.183C75.745 164.218 75.8109 164.237 75.8784 164.239H76.0629C76.0963 164.237 76.1296 164.244 76.1603 164.257C76.191 164.271 76.2182 164.291 76.2398 164.316C76.2859 164.374 76.3095 164.446 76.3063 164.52C76.3076 164.558 76.2999 164.597 76.2839 164.632C76.2678 164.668 76.2439 164.699 76.2138 164.723C76.1459 164.777 76.0609 164.805 75.9744 164.801H75.8784Z" fill="#22252A"/>
    <path d="M76.8303 161.397C76.7964 161.398 76.7627 161.392 76.7311 161.38C76.6994 161.368 76.6704 161.35 76.6458 161.326C76.6219 161.304 76.603 161.277 76.5902 161.247C76.5775 161.217 76.5712 161.185 76.5718 161.152C76.5707 161.119 76.5767 161.085 76.5894 161.054C76.6022 161.022 76.6214 160.994 76.6458 160.971C76.6957 160.924 76.762 160.899 76.8303 160.901H78.7108C78.7791 160.899 78.8455 160.924 78.8953 160.971C78.9196 160.994 78.9387 161.022 78.9514 161.054C78.9641 161.085 78.9699 161.119 78.9687 161.152C78.9694 161.185 78.9633 161.217 78.9506 161.247C78.9379 161.277 78.9191 161.304 78.8953 161.326C78.8707 161.35 78.8417 161.368 78.81 161.38C78.7784 161.392 78.7447 161.398 78.7108 161.397H76.8303ZM78.6663 164.801C78.4252 164.806 78.1874 164.744 77.9793 164.622C77.7711 164.499 77.6006 164.322 77.4866 164.109C77.3657 163.883 77.3048 163.629 77.3097 163.372V159.754C77.307 159.677 77.3346 159.602 77.3866 159.546C77.4129 159.519 77.4446 159.498 77.4795 159.484C77.5145 159.47 77.552 159.464 77.5896 159.465C77.6277 159.464 77.6657 159.47 77.7013 159.484C77.7368 159.498 77.7691 159.519 77.7961 159.546C77.8231 159.574 77.8443 159.606 77.8583 159.641C77.8723 159.677 77.8789 159.715 77.8775 159.754V163.372C77.8684 163.599 77.9476 163.821 78.0984 163.99C78.1702 164.069 78.258 164.132 78.3561 164.173C78.4541 164.215 78.5599 164.234 78.6663 164.231H78.8658C78.9016 164.23 78.9373 164.237 78.9704 164.251C79.0034 164.265 79.0331 164.286 79.0572 164.312C79.1074 164.369 79.1338 164.443 79.1312 164.519C79.1326 164.558 79.1253 164.596 79.11 164.631C79.0947 164.667 79.0717 164.698 79.0427 164.723C78.9811 164.776 78.9022 164.804 78.8213 164.801H78.6663Z" fill="#22252A"/>
    <path d="M81.956 161.397C81.9222 161.398 81.8885 161.392 81.8568 161.38C81.8252 161.368 81.7962 161.35 81.7716 161.326C81.7477 161.304 81.7288 161.277 81.716 161.247C81.7032 161.217 81.697 161.185 81.6976 161.152C81.6964 161.119 81.7024 161.085 81.7152 161.054C81.728 161.022 81.7472 160.994 81.7716 160.971C81.8214 160.924 81.8877 160.899 81.956 160.901H83.8366C83.9049 160.899 83.9712 160.924 84.021 160.971C84.0454 160.994 84.0645 161.022 84.0772 161.054C84.0898 161.085 84.0957 161.119 84.0945 161.152C84.0952 161.185 84.089 161.217 84.0764 161.247C84.0637 161.277 84.0448 161.304 84.021 161.326C83.9964 161.35 83.9675 161.368 83.9358 161.38C83.9041 161.392 83.8704 161.398 83.8366 161.397H81.956ZM83.7921 164.801C83.5509 164.806 83.3132 164.744 83.105 164.622C82.8968 164.499 82.7264 164.322 82.6124 164.109C82.4914 163.883 82.4305 163.629 82.4354 163.372V159.754C82.4327 159.677 82.4604 159.602 82.5123 159.546C82.5387 159.519 82.5703 159.498 82.6053 159.484C82.6402 159.47 82.6777 159.464 82.7153 159.465C82.7535 159.464 82.7915 159.47 82.827 159.484C82.8625 159.498 82.8948 159.519 82.9218 159.546C82.9489 159.574 82.97 159.606 82.984 159.641C82.9981 159.677 83.0046 159.715 83.0033 159.754V163.372C82.9942 163.599 83.0734 163.821 83.2242 163.99C83.2959 164.069 83.3838 164.132 83.4818 164.173C83.5799 164.215 83.6857 164.234 83.792 164.231H83.9915C84.0274 164.23 84.0631 164.237 84.0961 164.251C84.1292 164.265 84.1588 164.286 84.1829 164.312C84.2331 164.369 84.2596 164.443 84.257 164.519C84.2583 164.558 84.2511 164.596 84.2358 164.631C84.2205 164.667 84.1975 164.698 84.1685 164.723C84.1069 164.776 84.0279 164.804 83.947 164.801H83.7921Z" fill="#22252A"/>
    <path d="M87.0153 164.838C86.6465 164.844 86.2825 164.752 85.9606 164.572C85.6553 164.399 85.4028 164.145 85.2302 163.839C85.056 163.512 84.9648 163.147 84.9648 162.777C84.9648 162.406 85.056 162.041 85.2302 161.715C85.4028 161.409 85.6553 161.155 85.9606 160.982C86.2824 160.801 86.6464 160.709 87.0153 160.716C87.383 160.709 87.7458 160.801 88.066 160.982C88.3698 161.156 88.621 161.409 88.7929 161.715C88.9737 162.041 89.0677 162.408 89.0659 162.781C89.0718 163.151 88.9788 163.517 88.7964 163.839C88.6225 164.144 88.3703 164.397 88.066 164.572C87.7457 164.753 87.3829 164.845 87.0153 164.838ZM87.0153 164.32C87.2842 164.324 87.5492 164.255 87.7821 164.12C88.0055 163.989 88.1892 163.8 88.3135 163.573C88.444 163.329 88.5099 163.057 88.505 162.781C88.5096 162.503 88.4437 162.23 88.3135 161.985C88.1903 161.756 88.0064 161.565 87.7821 161.434C87.5476 161.303 87.2836 161.234 87.015 161.234C86.7465 161.234 86.4825 161.303 86.248 161.434C86.0232 161.565 85.8385 161.756 85.7136 161.985C85.5808 162.229 85.5135 162.503 85.5182 162.781C85.5132 163.057 85.5806 163.33 85.7136 163.573C85.8396 163.8 86.0241 163.989 86.248 164.12C86.4811 164.255 86.7463 164.324 87.0153 164.32Z" fill="#22252A"/>
    <path d="M92.6945 164.801C92.657 164.801 92.6198 164.795 92.5849 164.781C92.5501 164.767 92.5184 164.746 92.4915 164.72C92.4636 164.693 92.4417 164.661 92.427 164.625C92.4124 164.589 92.4054 164.551 92.4065 164.513V159.31C92.4065 159.233 92.4368 159.16 92.4908 159.106C92.5447 159.051 92.6179 159.021 92.6942 159.021C92.7705 159.021 92.8437 159.051 92.8976 159.106C92.9516 159.16 92.9819 159.233 92.9819 159.31V164.253H95.8657C95.9408 164.252 96.0135 164.28 96.0687 164.331C96.0955 164.356 96.1169 164.386 96.1315 164.42C96.1461 164.454 96.1537 164.49 96.1537 164.527C96.1537 164.564 96.1461 164.6 96.1315 164.634C96.1169 164.668 96.0955 164.698 96.0687 164.723C96.0135 164.774 95.9408 164.802 95.8657 164.801H92.6945Z" fill="#22252A"/>
    <path d="M98.7796 164.838C98.4274 164.844 98.0803 164.753 97.7755 164.576C97.4708 164.398 97.22 164.141 97.05 163.831C96.8727 163.51 96.7824 163.148 96.7881 162.781C96.7818 162.41 96.8749 162.044 97.0575 161.722C97.2324 161.416 97.4858 161.161 97.7914 160.986C98.1115 160.809 98.4712 160.716 98.8369 160.716C99.2026 160.716 99.5623 160.809 99.8824 160.986C100.186 161.162 100.438 161.416 100.612 161.722C100.795 162.045 100.89 162.41 100.889 162.781L100.66 162.958C100.665 163.294 100.58 163.625 100.413 163.917C100.252 164.196 100.021 164.429 99.7419 164.59C99.4492 164.758 99.1168 164.844 98.7796 164.838ZM98.8386 164.32C99.1064 164.324 99.3704 164.255 99.6019 164.12C99.8251 163.988 100.008 163.797 100.133 163.568C100.261 163.325 100.328 163.054 100.328 162.779C100.328 162.503 100.261 162.232 100.133 161.989C100.007 161.761 99.8239 161.571 99.6019 161.437C99.3702 161.304 99.1076 161.234 98.8404 161.234C98.5731 161.234 98.3106 161.304 98.0788 161.437C97.8548 161.571 97.6692 161.761 97.5404 161.989C97.4098 162.231 97.3415 162.503 97.3415 162.779C97.3415 163.054 97.4098 163.326 97.5404 163.568C97.6687 163.8 97.8572 163.992 98.0859 164.124C98.3145 164.257 98.5747 164.324 98.8386 164.32ZM100.601 164.801C100.525 164.803 100.451 164.775 100.395 164.723C100.368 164.697 100.346 164.665 100.332 164.63C100.319 164.595 100.312 164.557 100.314 164.519V163.254L100.454 162.67L100.889 162.781L100.889 164.519C100.891 164.557 100.884 164.595 100.87 164.63C100.856 164.665 100.835 164.697 100.808 164.723C100.78 164.749 100.748 164.769 100.712 164.783C100.677 164.796 100.639 164.802 100.601 164.801Z" fill="#22252A"/>
    <path d="M103.404 164.838C103.11 164.838 102.819 164.788 102.541 164.69C102.276 164.604 102.037 164.451 101.848 164.246C101.822 164.22 101.803 164.188 101.791 164.154C101.78 164.119 101.776 164.082 101.781 164.046C101.792 163.97 101.832 163.901 101.892 163.854C101.951 163.808 102.024 163.787 102.098 163.794C102.172 163.8 102.241 163.835 102.29 163.891C102.417 164.035 102.578 164.144 102.759 164.209C102.965 164.285 103.184 164.323 103.404 164.32C103.68 164.343 103.957 164.277 104.193 164.131C104.267 164.08 104.329 164.012 104.372 163.933C104.416 163.854 104.44 163.766 104.444 163.676C104.444 163.587 104.42 163.5 104.376 163.423C104.332 163.346 104.269 163.281 104.193 163.236C103.939 163.09 103.658 162.998 103.367 162.966C102.973 162.928 102.596 162.785 102.276 162.551C102.169 162.468 102.082 162.362 102.022 162.24C101.961 162.118 101.93 161.984 101.929 161.848C101.921 161.622 101.991 161.399 102.128 161.219C102.267 161.047 102.451 160.916 102.659 160.842C102.893 160.756 103.141 160.713 103.39 160.716C103.683 160.708 103.974 160.767 104.241 160.886C104.468 160.99 104.667 161.148 104.82 161.345C104.843 161.373 104.86 161.404 104.871 161.439C104.881 161.473 104.884 161.509 104.879 161.545C104.873 161.58 104.86 161.614 104.84 161.643C104.819 161.673 104.792 161.697 104.761 161.715C104.7 161.75 104.628 161.762 104.558 161.748C104.483 161.736 104.414 161.699 104.363 161.641C104.248 161.503 104.101 161.395 103.935 161.327C103.756 161.257 103.566 161.223 103.375 161.226C103.146 161.215 102.92 161.273 102.726 161.393C102.653 161.436 102.592 161.497 102.549 161.57C102.507 161.643 102.484 161.726 102.482 161.811C102.48 161.917 102.512 162.021 102.574 162.107C102.659 162.208 102.768 162.285 102.892 162.329C103.095 162.408 103.306 162.462 103.522 162.492C103.826 162.531 104.121 162.62 104.396 162.755C104.583 162.846 104.741 162.987 104.853 163.162C104.953 163.334 105 163.532 104.988 163.731C104.976 163.929 104.906 164.12 104.787 164.279C104.64 164.464 104.446 164.605 104.226 164.69C103.965 164.793 103.685 164.843 103.404 164.838Z" fill="#22252A"/>
    <path d="M105.713 161.397C105.679 161.398 105.645 161.392 105.613 161.38C105.582 161.368 105.553 161.35 105.528 161.326C105.504 161.304 105.485 161.277 105.472 161.247C105.46 161.217 105.453 161.185 105.454 161.152C105.453 161.119 105.459 161.085 105.472 161.054C105.484 161.022 105.504 160.994 105.528 160.971C105.578 160.924 105.644 160.899 105.713 160.901H107.593C107.661 160.899 107.728 160.924 107.777 160.971C107.802 160.994 107.821 161.022 107.834 161.054C107.846 161.085 107.852 161.119 107.851 161.152C107.852 161.185 107.845 161.217 107.833 161.247C107.82 161.277 107.801 161.304 107.777 161.326C107.753 161.35 107.724 161.368 107.692 161.38C107.661 161.392 107.627 161.398 107.593 161.397H105.713ZM107.549 164.801C107.307 164.806 107.07 164.744 106.861 164.622C106.653 164.499 106.483 164.322 106.369 164.109C106.248 163.883 106.187 163.629 106.192 163.372V159.754C106.189 159.677 106.217 159.602 106.269 159.546C106.295 159.519 106.327 159.498 106.362 159.484C106.397 159.47 106.434 159.464 106.472 159.465C106.51 159.464 106.548 159.47 106.583 159.484C106.619 159.498 106.651 159.519 106.678 159.546C106.705 159.574 106.727 159.606 106.741 159.641C106.755 159.677 106.761 159.715 106.76 159.754V163.372C106.751 163.599 106.83 163.821 106.981 163.99C107.052 164.069 107.14 164.132 107.238 164.173C107.336 164.215 107.442 164.234 107.549 164.231H107.748C107.784 164.23 107.82 164.237 107.853 164.251C107.886 164.265 107.915 164.286 107.939 164.312C107.99 164.369 108.016 164.443 108.013 164.519C108.015 164.558 108.008 164.596 107.992 164.631C107.977 164.667 107.954 164.698 107.925 164.723C107.863 164.776 107.784 164.804 107.703 164.801H107.549Z" fill="#22252A"/>
  </g>
  <defs>
    <clipPath id="clip0_6_333">
      <rect width="122" height="166" fill="white"/>
    </clipPath>
  </defs>
</svg>